<svg version="1.1" id="Layer_1" xmlns="http://www.w3.org/2000/svg" xmlns:xlink="http://www.w3.org/1999/xlink" x="0px" y="0px"
	 width="100%" viewBox="0 0 620 740" enable-background="new 0 0 620 740" xml:space="preserve">
<path fill="#FEFEFF" opacity="1.000000" stroke="none" 
	d="
M1.000000,290.000000 
	C1.000000,193.333328 1.000000,97.166664 1.000000,1.000000 
	C207.666672,1.000000 414.333344,1.000000 621.000000,1.000000 
	C621.000000,247.666672 621.000000,494.333344 621.000000,741.000000 
	C414.333344,741.000000 207.666672,741.000000 1.000000,741.000000 
	C1.000000,590.833313 1.000000,440.666656 1.000000,290.000000 
M500.606873,684.102661 
	C500.606873,684.102661 500.525574,684.366516 500.666412,685.086853 
	C506.679779,697.135437 512.648315,709.206970 518.804382,721.182190 
	C519.227478,722.005188 521.051880,722.107849 522.904175,722.254028 
	C536.999390,715.238159 551.094543,708.222229 565.413635,701.094910 
	C558.849915,687.988525 552.512390,675.385132 546.220154,662.759216 
	C532.497131,635.222656 518.796997,607.674683 505.270172,579.180908 
	C505.284210,551.578918 505.311890,523.976868 505.296417,496.374878 
	C505.294312,492.564697 505.078613,488.754669 505.142639,484.243805 
	C506.402374,481.742310 507.556793,479.181030 508.937622,476.748291 
	C529.799072,439.995270 534.362244,401.414368 520.715088,361.326080 
	C516.785339,349.782501 510.337311,339.096222 505.271332,327.098145 
	C505.285583,277.656677 505.303406,228.215225 505.312622,178.773758 
	C505.317444,152.970840 505.331207,127.167892 505.287720,101.365051 
	C505.275970,94.397751 502.962402,92.158257 495.945618,92.130188 
	C491.956116,92.114243 487.966034,92.257141 483.090363,92.154762 
	C480.385193,92.210190 477.679993,92.265610 474.529480,92.230789 
	C474.177338,92.380684 474.075897,92.631882 474.017761,93.903091 
	C474.005707,160.928329 473.993683,227.953583 473.291595,294.918091 
	C460.550293,285.607452 446.652435,278.521423 432.289948,272.609619 
	C435.230072,272.390503 438.213593,272.399902 441.091705,271.853973 
	C442.491058,271.588531 443.693390,270.284698 444.984924,269.450928 
	C443.687683,268.625549 442.406464,267.116058 441.090576,267.085205 
	C432.132599,266.874908 423.166809,266.926758 414.204834,267.019165 
	C412.472107,267.037048 410.745087,267.606354 408.142700,267.958710 
	C394.767212,267.992188 381.391724,268.025635 367.466766,267.416290 
	C366.325287,267.268341 365.183868,266.992096 364.042267,266.991150 
	C334.212891,266.966400 304.383484,266.970001 274.554077,266.970001 
	C273.887634,266.970001 273.108429,266.766632 272.579956,267.040466 
	C271.689423,267.501953 270.201752,268.462646 270.305969,268.872437 
	C270.581940,269.957916 271.384796,271.350708 272.329346,271.718231 
	C273.644043,272.229797 275.278595,271.954803 276.776245,271.955353 
	C298.773346,271.963654 320.770538,271.940155 342.767456,272.003937 
	C344.501129,272.008942 346.233063,272.604767 347.298004,273.236420 
	C341.877258,275.200439 336.456512,277.164490 330.520386,278.444397 
	C324.561646,278.282043 318.603516,278.013184 312.644043,277.979370 
	C300.002502,277.907654 287.359558,277.898834 274.719513,278.054352 
	C273.504120,278.069305 272.305145,279.418243 271.098541,280.147949 
	C272.241333,280.773682 273.321533,281.648987 274.544342,281.955841 
	C275.796509,282.270081 277.188446,282.022430 278.519135,282.029449 
	C293.985474,282.111053 309.451782,282.194305 324.378510,282.797394 
	C320.596863,284.905640 316.815216,287.013885 312.482208,288.479218 
	C299.394684,288.335022 286.306824,288.121674 273.220215,288.180664 
	C272.195374,288.185272 271.179108,290.091125 270.158875,291.113342 
	C271.293732,291.747406 272.420532,292.915649 273.564667,292.932861 
	C284.850128,293.102631 296.138489,293.081299 307.039551,293.697723 
	C268.487213,323.153076 249.420990,362.250488 250.248184,410.648438 
	C250.739868,439.416321 260.619690,465.314148 276.742523,489.347809 
	C275.645630,489.571442 274.416779,489.558105 273.484344,490.077179 
	C272.249695,490.764465 271.246887,491.868195 270.144470,492.792908 
	C271.327545,493.525635 272.454315,494.746857 273.705200,494.891052 
	C276.451782,495.207642 279.261139,494.979218 282.622955,495.274261 
	C284.145386,497.097351 285.667847,498.920471 286.636505,501.426758 
	C282.544586,501.626556 278.432373,501.653900 274.373260,502.132172 
	C273.169586,502.273987 272.115417,503.684937 270.992767,504.514374 
	C272.107880,505.349487 273.201324,506.869751 274.341705,506.905792 
	C280.612946,507.104004 286.895630,506.939240 293.771027,507.169769 
	C295.864777,509.088043 297.958527,511.006287 299.482697,513.553955 
	C291.376801,513.703979 283.269836,513.996460 275.165466,513.936584 
	C271.746826,513.911316 270.291931,515.082825 270.643402,518.914368 
	C281.976471,518.914368 293.222900,518.928833 304.468872,518.868896 
	C304.995758,518.866089 305.519104,518.200317 306.714447,518.023010 
	C309.781616,520.072632 312.848755,522.122253 315.293243,524.697571 
	C310.650665,524.794434 306.008362,524.952698 301.365417,524.975220 
	C292.056152,525.020386 282.745361,524.923645 273.438568,525.082275 
	C272.331848,525.101074 271.245972,526.345886 270.150452,527.022400 
	C271.223419,527.998657 272.227264,529.073181 273.404663,529.900879 
	C273.852478,530.215637 274.699158,529.968323 275.364044,529.968323 
	C290.159485,529.969299 304.955017,529.992859 319.750214,529.930298 
	C321.161865,529.924377 322.571198,529.379089 324.685028,529.178101 
	C328.541626,531.002441 332.398254,532.826721 335.683563,535.333191 
	C333.733734,535.544556 331.784332,535.934448 329.833984,535.939453 
	C311.560455,535.986694 293.286621,535.939880 275.013397,536.028687 
	C273.731445,536.034912 272.415283,536.827209 271.212860,537.444580 
	C271.018829,537.544250 271.192413,539.127441 271.447083,539.205444 
	C272.824005,539.627380 274.279480,540.008545 275.708710,540.011536 
	C297.969269,540.058594 320.230011,540.068298 342.490387,539.994629 
	C344.006012,539.989563 345.519226,539.254822 347.828064,538.906616 
	C358.574738,540.897156 369.321442,542.887695 379.523163,545.540710 
	C377.553101,545.705627 375.583130,546.012329 373.612915,546.014282 
	C341.452271,546.045227 309.291565,546.036621 277.130890,546.041931 
	C275.632355,546.042175 274.026886,545.769348 272.670410,546.221497 
	C271.658051,546.558899 270.967468,547.861755 270.133606,548.734680 
	C270.987183,549.493835 271.732819,550.497314 272.727570,550.937073 
	C273.565948,551.307739 274.693848,551.028503 275.693573,551.028503 
	C324.184570,551.029053 372.675537,551.028870 421.166534,551.028137 
	C422.166321,551.028137 423.324890,551.339905 424.127136,550.940002 
	C425.218567,550.396057 426.037811,549.306091 426.973816,548.450256 
	C425.980621,547.647522 425.008484,546.181702 423.990845,546.149353 
	C417.332092,545.937744 410.661835,546.114319 403.999115,545.979614 
	C402.298157,545.945312 400.610626,545.246338 399.725372,544.648254 
	C409.131470,543.014343 418.537598,541.380493 428.475525,540.416016 
	C433.822174,540.416016 439.168823,540.416016 445.705627,540.416016 
	C444.675629,537.964844 443.877350,536.065125 443.705811,533.824097 
	C445.494263,533.146545 447.282715,532.469055 449.469849,532.390747 
	C454.714050,542.930786 459.958252,553.470764 464.773102,564.579346 
	C458.342072,567.848450 451.911041,571.117493 445.353821,574.450745 
	C450.626465,585.192932 455.713593,595.557190 459.890839,605.997375 
	C457.725708,606.025269 455.560577,606.077454 453.395447,606.077515 
	C345.100433,606.081665 236.805435,606.080139 128.510437,606.090454 
	C126.350212,606.090698 124.189995,606.224670 121.124733,606.112976 
	C118.194511,606.112976 115.264290,606.112976 111.871681,606.112976 
	C111.871681,434.438049 111.871681,263.507446 111.871681,92.163239 
	C103.433754,92.163239 95.472336,91.957230 87.530540,92.262146 
	C84.240685,92.388451 81.525276,94.198174 80.859634,98.498711 
	C80.892479,98.669785 80.925316,98.840851 80.731941,99.925339 
	C80.713326,146.578156 80.681389,193.230988 80.678627,239.883804 
	C80.670883,371.012665 80.674622,502.141510 80.675934,633.270386 
	C80.676018,642.282837 82.459030,644.059509 91.459000,644.059692 
	C107.787621,644.060059 124.116249,644.060730 140.444870,644.058472 
	C253.578415,644.042847 366.711975,644.026489 480.236603,644.612854 
	C486.761108,657.378784 493.285645,670.144653 499.780060,683.335205 
	C500.010742,683.671326 500.241425,684.007507 500.606873,684.102661 
M399.853363,133.084167 
	C399.867371,114.943382 399.884705,96.802605 399.894318,78.661819 
	C399.900513,66.951828 396.943329,64.028503 385.073822,64.018402 
	C374.464050,64.009361 363.854279,64.016495 353.301086,64.016495 
	C350.024811,24.173475 319.249390,7.146084 296.233063,5.864800 
	C268.587769,4.325830 235.481476,24.336971 232.711227,64.250290 
	C223.808716,64.250290 214.854187,64.250290 205.139542,64.080910 
	C203.640152,64.059082 202.140793,64.019814 200.641388,64.018219 
	C189.334030,64.006241 186.097565,67.242477 186.095856,78.565918 
	C186.093048,97.232155 186.087830,115.898407 186.098419,134.564636 
	C186.103867,144.181030 189.803818,147.931335 199.319992,147.932373 
	C261.818542,147.939194 324.317108,147.939560 386.815674,147.929062 
	C395.897675,147.927536 400.269775,143.160645 399.853363,133.084167 
M153.511993,322.021484 
	C150.846634,322.021484 148.165283,322.205505 145.519867,321.975769 
	C142.075317,321.676605 140.916550,322.895782 140.929993,326.448486 
	C141.049911,358.099213 141.036545,389.750641 140.945648,421.401581 
	C140.936264,424.670624 141.603165,426.133331 145.310425,426.117981 
	C176.461304,425.988831 207.613068,426.008087 238.764206,426.101624 
	C241.973740,426.111267 243.106628,425.182434 243.096481,421.859924 
	C242.999847,390.209656 242.973129,358.558563 243.142303,326.908875 
	C243.164215,322.806793 241.768341,321.928406 237.967819,321.947235 
	C210.148788,322.085327 182.328751,322.021606 153.511993,322.021484 
M243.035645,535.499390 
	C243.057083,508.842896 243.092102,482.186432 243.078995,455.529938 
	C243.077682,452.851593 243.895493,449.870453 239.145432,449.893372 
	C207.657700,450.045380 176.168808,449.998169 144.680496,449.928680 
	C141.827515,449.922394 140.954880,450.973450 140.960220,453.735199 
	C141.022491,485.889954 141.033997,518.044983 140.940140,550.199585 
	C140.930695,553.433899 142.287292,554.150269 145.138275,554.051697 
	C149.631241,553.896301 154.133560,554.010315 158.631912,554.010315 
	C185.122208,554.010376 211.613083,553.925293 238.102219,554.100830 
	C242.137787,554.127563 243.384872,552.885681 243.104065,548.989319 
	C242.805450,544.845642 243.036163,540.663879 243.035645,535.499390 
M181.500000,298.972076 
	C200.161819,298.972046 218.825180,298.843140 237.484268,299.068726 
	C241.785370,299.120728 243.174149,298.105164 243.144196,293.567139 
	C242.938568,262.409882 243.039978,231.250626 243.026871,200.092026 
	C243.026199,198.496216 242.881546,196.900467 242.808487,195.398880 
	C241.780746,195.184357 241.302277,194.997360 240.823669,194.997025 
	C208.832153,194.974258 176.840408,195.016968 144.849350,194.889694 
	C141.114731,194.874847 140.964478,196.750473 140.968857,199.559753 
	C141.018326,231.218155 141.049469,262.876862 140.930115,294.534882 
	C140.916733,298.078857 142.065292,299.090332 145.510071,299.038330 
	C157.171051,298.862274 168.836349,298.971680 181.500000,298.972076 
M281.528015,204.001175 
	C335.918427,204.001175 390.308868,204.001175 444.592407,204.001175 
	C445.549683,194.956192 445.549683,194.954681 437.701202,194.954651 
	C384.542786,194.954483 331.384338,194.954971 278.225922,194.955658 
	C276.892792,194.955673 275.367828,194.553726 274.276245,195.068558 
	C272.977600,195.681000 271.502258,196.910629 271.102448,198.186005 
	C270.603180,199.778473 271.122101,201.690140 271.225494,204.001175 
	C274.627441,204.001175 277.584503,204.001175 281.528015,204.001175 
M323.500000,224.966751 
	C361.817047,224.966660 400.134125,224.966660 438.451172,224.966141 
	C439.617340,224.966125 440.898224,225.264038 441.919098,224.877518 
	C443.062378,224.444687 443.970154,223.389862 444.980408,222.605682 
	C443.895386,221.733185 442.894226,220.707169 441.691467,220.050247 
	C441.049469,219.699615 440.059387,219.985474 439.226410,219.985474 
	C384.749542,219.985458 330.272675,219.985535 275.795807,219.986145 
	C274.796265,219.986160 273.682678,219.715744 272.826782,220.068176 
	C271.814484,220.485001 271.024658,221.442215 270.138397,222.165207 
	C270.934143,223.068588 271.569397,224.362610 272.567749,224.772705 
	C273.717560,225.245026 275.188232,224.962265 276.519531,224.962799 
	C291.846344,224.968979 307.173187,224.966705 323.500000,224.966751 
M347.500000,232.003143 
	C324.175659,232.003143 300.851349,232.003113 277.527008,232.003311 
	C276.527405,232.003311 275.410278,231.720673 274.555725,232.073318 
	C273.274841,232.601883 272.178314,233.577164 271.003387,234.362473 
	C272.259094,235.234909 273.464783,236.197876 274.795929,236.933884 
	C275.306458,237.216156 276.103363,236.980850 276.769775,236.980850 
	C330.915558,236.980774 385.061340,236.980713 439.207123,236.979980 
	C440.206696,236.979965 441.370148,237.293808 442.165924,236.888916 
	C443.250397,236.337128 444.054413,235.234207 444.978699,234.367584 
	C443.973755,233.581665 443.072235,232.523514 441.933136,232.090866 
	C440.913208,231.703476 439.631500,232.003265 438.465302,232.003265 
	C408.476868,232.002960 378.488434,232.003098 347.500000,232.003143 
M300.500000,255.995102 
	C298.667206,255.995102 296.834442,255.994568 295.001648,255.995178 
	C288.003845,255.997482 281.003235,255.904404 274.011322,256.108246 
	C272.987610,256.138092 272.005127,257.582275 271.003601,258.372070 
	C271.931244,259.237549 272.739319,260.338806 273.826355,260.890015 
	C274.623138,261.294067 275.785889,260.979797 276.785553,260.979797 
	C330.935303,260.980438 385.085052,260.980499 439.234802,260.980347 
	C440.067871,260.980347 441.059753,261.265533 441.699768,260.913147 
	C442.901001,260.251709 443.898743,259.220734 444.981110,258.343475 
	C443.972778,257.562561 443.066437,256.510742 441.925781,256.081329 
	C440.903625,255.696503 439.623505,255.995224 438.457214,255.995224 
	C392.804810,255.994980 347.152405,255.995056 300.500000,255.995102 
M295.500000,244.019089 
	C288.337311,244.021744 281.171936,243.930328 274.014893,244.132599 
	C272.989868,244.161575 272.004913,245.609558 271.001434,246.400833 
	C271.931335,247.262115 272.761017,248.294937 273.829407,248.919174 
	C274.452026,249.282944 275.456818,248.995956 276.289673,248.995987 
	C313.102600,248.997314 349.915497,248.998032 386.728424,248.998520 
	C387.394714,248.998520 388.212677,249.241730 388.697174,248.943970 
	C389.873383,248.221085 390.894531,247.245880 391.978180,246.372330 
	C390.968353,245.590652 390.060516,244.538574 388.918335,244.107819 
	C387.896698,243.722504 386.616669,244.020172 385.450653,244.020157 
	C355.800446,244.019516 326.150208,244.019363 295.500000,244.019089 
z"/>
<path fill="#546895" opacity="1.000000" stroke="none" 
	d="
M479.845520,644.010376 
	C366.711975,644.026489 253.578415,644.042847 140.444870,644.058472 
	C124.116249,644.060730 107.787621,644.060059 91.459000,644.059692 
	C82.459030,644.059509 80.676018,642.282837 80.675934,633.270386 
	C80.674622,502.141510 80.670883,371.012665 80.678627,239.883804 
	C80.681389,193.230988 80.713326,146.578156 81.015503,99.385452 
	C81.374863,98.746269 81.535133,98.591026 81.512535,98.556915 
	C81.381599,98.359230 81.207565,98.190102 81.048119,98.011307 
	C81.525276,94.198174 84.240685,92.388451 87.530540,92.262146 
	C95.472336,91.957230 103.433754,92.163239 111.871681,92.163239 
	C111.871681,263.507446 111.871681,434.438049 111.871681,606.112976 
	C115.264290,606.112976 118.194511,606.112976 121.572525,606.646362 
	C122.012825,608.844177 122.160538,610.526978 121.966072,612.169250 
	C121.540413,615.763916 122.725861,617.089783 126.610268,617.085754 
	C239.796967,616.969543 352.983765,616.969971 466.421143,617.176025 
	C471.062988,626.270325 475.454254,635.140320 479.845520,644.010376 
z"/>
<path fill="#384459" opacity="1.000000" stroke="none" 
	d="
M380.068115,544.878235 
	C369.321442,542.887695 358.574738,540.897156 347.212585,538.605896 
	C343.149689,537.087158 339.702271,535.869080 336.254852,534.651062 
	C332.398254,532.826721 328.541626,531.002441 324.126343,528.862793 
	C321.017059,527.088989 318.466492,525.630432 315.915924,524.171875 
	C312.848755,522.122253 309.781616,520.072632 306.253662,517.632935 
	C303.879333,515.803406 301.965820,514.364014 300.052277,512.924561 
	C297.958527,511.006287 295.864777,509.088043 293.345032,506.726013 
	C291.009430,504.436005 289.099854,502.589783 287.190277,500.743561 
	C285.667847,498.920471 284.145386,497.097351 282.227448,494.809692 
	C280.303528,492.460449 278.775146,490.575775 277.246735,488.691071 
	C260.619690,465.314148 250.739868,439.416321 250.248184,410.648438 
	C249.420990,362.250488 268.487213,323.153076 307.541534,293.343018 
	C309.706879,291.699554 311.370209,290.410828 313.033569,289.122131 
	C316.815216,287.013885 320.596863,284.905640 324.953247,282.521423 
	C327.363922,281.206482 329.199860,280.167511 331.035767,279.128510 
	C336.456512,277.164490 341.877258,275.200439 348.025208,273.116180 
	C355.173676,271.350342 361.594940,269.704712 368.016235,268.059113 
	C381.391724,268.025635 394.767212,267.992188 408.886353,268.170624 
	C417.009674,270.032013 424.389374,271.681488 431.769073,273.330963 
	C446.652435,278.521423 460.550293,285.607452 473.773560,295.257263 
	C477.478485,298.093109 480.701508,300.589783 484.080505,303.380188 
	C491.172302,311.788269 498.108093,319.902588 505.043854,328.016907 
	C510.337311,339.096222 516.785339,349.782501 520.715088,361.326080 
	C534.362244,401.414368 529.799072,439.995270 508.937622,476.748291 
	C507.556793,479.181030 506.402374,481.742310 504.713318,484.644958 
	C497.720856,492.386383 491.148376,499.718353 484.617126,507.086823 
	C484.213654,507.542023 484.134644,508.284790 483.570160,508.962158 
	C480.171387,511.638123 477.107086,514.245667 473.681946,516.860474 
	C470.469940,518.781677 467.609650,520.682190 464.769958,522.612976 
	C461.167114,525.062561 457.580994,527.536804 453.643005,530.000732 
	C451.889252,530.597839 450.480225,531.194702 449.071167,531.791504 
	C447.282715,532.469055 445.494263,533.146545 443.027771,534.036011 
	C437.547729,536.080811 432.745728,537.913757 427.943695,539.746643 
	C418.537598,541.380493 409.131470,543.014343 398.866455,544.656616 
	C392.027740,544.736084 386.047943,544.807129 380.068115,544.878235 
M293.344025,355.386078 
	C292.239410,357.925659 291.134827,360.465271 289.540741,363.420807 
	C289.085876,364.621460 288.631042,365.822113 287.801849,367.668884 
	C287.023407,370.093781 286.244934,372.518707 285.124115,375.508423 
	C284.914398,376.605133 284.704681,377.701843 284.149506,379.450195 
	C283.669189,381.952728 283.188904,384.455292 282.300079,387.520294 
	C282.207458,388.681244 282.114807,389.842194 281.799408,391.729248 
	C281.637238,393.474487 281.475098,395.219727 281.103394,397.787781 
	C281.115601,399.197479 281.127777,400.607147 280.950256,402.854553 
	C280.992279,404.566559 281.034271,406.278564 280.951324,408.825714 
	C281.039246,410.225494 281.127167,411.625305 281.086090,413.786652 
	C281.348419,415.531403 281.610718,417.276123 281.784363,419.757690 
	C281.982941,421.186646 282.181549,422.615631 282.467896,424.896118 
	C285.607910,434.280151 288.747955,443.664185 291.992310,453.751984 
	C293.606659,456.511871 295.221008,459.271790 296.961151,462.727356 
	C300.881714,467.860840 304.802277,472.994293 309.009705,478.717987 
	C310.503784,480.183014 311.997864,481.648010 313.855408,483.715363 
	C316.863373,486.242371 319.871338,488.769348 323.211945,491.835876 
	C324.922089,492.965759 326.632233,494.095642 328.804779,495.777954 
	C333.164490,498.209717 337.524231,500.641479 342.347046,503.609009 
	C346.478119,505.209778 350.609222,506.810577 355.367462,508.796295 
	C385.822205,518.442200 415.093872,515.579407 442.927032,499.974487 
	C455.326263,493.022736 466.411652,484.321777 474.990021,471.976410 
	C478.276947,466.967346 481.563873,461.958282 484.985565,456.488708 
	C484.985565,456.488708 485.012848,456.009613 485.537872,455.567596 
	C497.134857,432.712616 501.114136,408.684265 495.142670,383.645935 
	C492.948578,374.445984 488.580658,365.764435 485.102356,356.133453 
	C481.544830,350.671051 477.987305,345.208618 474.189636,339.090332 
	C473.459534,337.988770 472.846313,336.784576 471.982208,335.800690 
	C451.459137,312.432861 425.773804,299.358093 394.626801,297.780701 
	C365.993713,296.330597 340.643005,304.996460 318.204407,323.988800 
	C316.145905,326.031219 314.087402,328.073639 311.446716,330.418976 
	C306.531586,336.913177 301.616455,343.407410 296.194275,350.293701 
	C295.413147,351.840820 294.632019,353.387939 293.344025,355.386078 
z"/>
<path fill="#546896" opacity="1.000000" stroke="none" 
	d="
M205.899658,64.250290 
	C214.854187,64.250290 223.808716,64.250290 232.711227,64.250290 
	C235.481476,24.336971 268.587769,4.325830 296.233063,5.864800 
	C319.249390,7.146084 350.024811,24.173475 353.301086,64.016495 
	C363.854279,64.016495 374.464050,64.009361 385.073822,64.018402 
	C396.943329,64.028503 399.900513,66.951828 399.894318,78.661819 
	C399.884705,96.802605 399.867371,114.943382 399.318359,133.544556 
	C339.149445,134.003082 279.515533,134.010117 219.881607,133.990799 
	C209.700729,133.987503 206.016647,130.274185 205.999878,120.216850 
	C205.968750,101.561333 205.933304,82.905807 205.899658,64.250290 
M284.432739,36.733971 
	C271.512421,41.076359 262.351440,52.906960 263.614532,63.753155 
	C283.318085,63.753155 303.034180,63.753155 322.746521,63.753155 
	C322.914185,46.265923 304.141815,30.980339 284.432739,36.733971 
M350.649536,69.749687 
	C349.225006,69.870277 347.800476,69.990868 346.472290,70.103310 
	C346.472290,72.969055 346.472290,75.363388 346.472290,78.087204 
	C357.001312,78.087204 367.143951,78.032997 377.285645,78.108826 
	C382.809357,78.150124 384.430298,79.806435 384.455566,85.304306 
	C384.507629,96.629951 384.462158,107.956009 384.491516,119.281815 
	C384.496033,121.028946 384.684570,122.775597 384.782196,124.424332 
	C387.810333,124.424332 390.219025,124.424332 392.992523,124.424332 
	C392.992523,110.759018 393.027435,97.458839 392.980072,84.158943 
	C392.949402,75.544342 387.256592,69.878853 378.603973,69.814507 
	C369.610291,69.747612 360.615967,69.767593 350.649536,69.749687 
z"/>
<path fill="#DADAD9" opacity="1.000000" stroke="none" 
	d="
M154.010513,322.021515 
	C182.328751,322.021606 210.148788,322.085327 237.967819,321.947235 
	C241.768341,321.928406 243.164215,322.806793 243.142303,326.908875 
	C242.973129,358.558563 242.999847,390.209656 243.096481,421.859924 
	C243.106628,425.182434 241.973740,426.111267 238.764206,426.101624 
	C207.613068,426.008087 176.461304,425.988831 145.310425,426.117981 
	C141.603165,426.133331 140.936264,424.670624 140.945648,421.401581 
	C141.036545,389.750641 141.049911,358.099213 140.929993,326.448486 
	C140.916550,322.895782 142.075317,321.676605 145.519867,321.975769 
	C148.165283,322.205505 150.846634,322.021484 154.010513,322.021515 
M213.516510,370.047333 
	C221.544266,358.671753 229.572006,347.296173 237.599747,335.920593 
	C237.062012,335.484711 236.524261,335.048828 235.986526,334.612946 
	C216.622482,352.745300 197.258438,370.877686 177.781708,389.115570 
	C167.010986,381.549713 156.505264,374.170013 145.999542,366.790314 
	C145.734406,367.061859 145.469254,367.333405 145.204102,367.604919 
	C155.678528,385.411255 166.152954,403.217621 177.045700,421.735107 
	C189.390198,404.256958 201.257721,387.454193 213.516510,370.047333 
z"/>
<path fill="#DADAD9" opacity="1.000000" stroke="none" 
	d="
M243.035690,535.999023 
	C243.036163,540.663879 242.805450,544.845642 243.104065,548.989319 
	C243.384872,552.885681 242.137787,554.127563 238.102219,554.100830 
	C211.613083,553.925293 185.122208,554.010376 158.631912,554.010315 
	C154.133560,554.010315 149.631241,553.896301 145.138275,554.051697 
	C142.287292,554.150269 140.930695,553.433899 140.940140,550.199585 
	C141.033997,518.044983 141.022491,485.889954 140.960220,453.735199 
	C140.954880,450.973450 141.827515,449.922394 144.680496,449.928680 
	C176.168808,449.998169 207.657700,450.045380 239.145432,449.893372 
	C243.895493,449.870453 243.077682,452.851593 243.078995,455.529938 
	C243.092102,482.186432 243.057083,508.842896 243.035690,535.999023 
M146.017853,494.326477 
	C145.765671,494.380768 145.513489,494.435059 145.261292,494.489349 
	C145.451584,494.711273 145.641876,494.933228 145.939621,495.856506 
	C156.153564,513.306519 166.367523,530.756531 177.041000,548.991577 
	C197.877548,519.435730 218.141266,490.692352 238.404984,461.949036 
	C237.946350,461.571838 237.487732,461.194641 237.029114,460.817444 
	C217.313812,479.276337 197.598495,497.735229 177.780106,516.290649 
	C175.449295,514.668945 173.420303,513.238037 171.371948,511.835419 
	C163.019562,506.115936 154.661224,500.405151 146.017853,494.326477 
z"/>
<path fill="#DADAD9" opacity="1.000000" stroke="none" 
	d="
M181.000000,298.972046 
	C168.836349,298.971680 157.171051,298.862274 145.510071,299.038330 
	C142.065292,299.090332 140.916733,298.078857 140.930115,294.534882 
	C141.049469,262.876862 141.018326,231.218155 140.968857,199.559753 
	C140.964478,196.750473 141.114731,194.874847 144.849350,194.889694 
	C176.840408,195.016968 208.832153,194.974258 240.823669,194.997025 
	C241.302277,194.997360 241.780746,195.184357 242.808487,195.398880 
	C242.881546,196.900467 243.026199,198.496216 243.026871,200.092026 
	C243.039978,231.250626 242.938568,262.409882 243.144196,293.567139 
	C243.174149,298.105164 241.785370,299.120728 237.484268,299.068726 
	C218.825180,298.843140 200.161819,298.972046 181.000000,298.972046 
M145.874008,233.588898 
	C145.679596,233.621582 145.485199,233.654282 145.290787,233.686966 
	C145.471390,233.848083 145.652008,234.009216 145.768326,234.894272 
	C156.072845,252.616684 166.377380,270.339081 176.995819,288.601379 
	C198.455856,258.170807 219.304550,228.607117 240.153244,199.043442 
	C219.888321,216.388474 200.529144,234.395920 181.363953,252.607513 
	C178.425293,255.399948 176.494659,255.244736 173.401550,252.996918 
	C164.414017,246.465515 155.176056,240.278778 145.874008,233.588898 
z"/>
<path fill="#C33A32" opacity="1.000000" stroke="none" 
	d="
M505.087524,580.131348 
	C518.796997,607.674683 532.497131,635.222656 546.220154,662.759216 
	C552.512390,675.385132 558.849915,687.988525 565.413635,701.094910 
	C551.094543,708.222229 536.999390,715.238159 522.416199,722.046387 
	C515.851746,710.692505 509.803040,699.530823 503.665710,688.418152 
	C502.849518,686.940369 501.583344,685.710938 500.525574,684.366516 
	C500.525574,684.366516 500.606873,684.102661 500.708313,683.925476 
	C500.871338,683.529480 500.932922,683.310608 500.872437,682.734680 
	C496.995728,671.241089 492.943329,660.194214 489.554169,648.947510 
	C484.097870,630.840881 481.255768,612.189758 480.141052,593.366150 
	C479.429230,581.346313 480.019440,569.249451 480.313416,557.009705 
	C482.108582,555.928284 483.616241,555.024231 485.474060,554.068726 
	C487.320343,553.375305 488.816437,552.733398 490.503174,552.009705 
	C495.419342,561.489075 500.253418,570.810242 505.087524,580.131348 
z"/>
<path fill="#536794" opacity="1.000000" stroke="none" 
	d="
M505.157593,327.557526 
	C498.108093,319.902588 491.172302,311.788269 484.108276,302.902832 
	C483.978760,232.197296 483.977478,162.262909 483.976196,92.328514 
	C487.966034,92.257141 491.956116,92.114243 495.945618,92.130188 
	C502.962402,92.158257 505.275970,94.397751 505.287720,101.365051 
	C505.331207,127.167892 505.317444,152.970840 505.312622,178.773758 
	C505.303406,228.215225 505.285583,277.656677 505.157593,327.557526 
z"/>
<path fill="#4C6496" opacity="1.000000" stroke="none" 
	d="
M205.519592,64.165604 
	C205.933304,82.905807 205.968750,101.561333 205.999878,120.216850 
	C206.016647,130.274185 209.700729,133.987503 219.881607,133.990799 
	C279.515533,134.010117 339.149445,134.003082 399.230011,134.005646 
	C400.269775,143.160645 395.897675,147.927536 386.815674,147.929062 
	C324.317108,147.939560 261.818542,147.939194 199.319992,147.932373 
	C189.803818,147.931335 186.103867,144.181030 186.098419,134.564636 
	C186.087830,115.898407 186.093048,97.232155 186.095856,78.565918 
	C186.097565,67.242477 189.334030,64.006241 200.641388,64.018219 
	C202.140793,64.019814 203.640152,64.059082 205.519592,64.165604 
z"/>
<path fill="#475980" opacity="1.000000" stroke="none" 
	d="
M466.170532,616.951721 
	C352.983765,616.969971 239.796967,616.969543 126.610268,617.085754 
	C122.725861,617.089783 121.540413,615.763916 121.966072,612.169250 
	C122.160538,610.526978 122.012825,608.844177 122.025040,606.738037 
	C124.189995,606.224670 126.350212,606.090698 128.510437,606.090454 
	C236.805435,606.080139 345.100433,606.081665 453.395447,606.077515 
	C455.560577,606.077454 457.725708,606.025269 460.542511,606.259277 
	C462.852966,609.997986 464.511749,613.474854 466.170532,616.951721 
z"/>
<path fill="#485981" opacity="1.000000" stroke="none" 
	d="
M483.533264,92.241638 
	C483.977478,162.262909 483.978760,232.197296 483.952271,302.609070 
	C480.701508,300.589783 477.478485,298.093109 474.118561,295.287659 
	C473.993683,227.953583 474.005707,160.928329 474.284058,93.380905 
	C474.760590,92.733780 474.902100,92.554550 474.974823,92.321037 
	C477.679993,92.265610 480.385193,92.210190 483.533264,92.241638 
z"/>
<path fill="#993026" opacity="1.000000" stroke="none" 
	d="
M466.421143,617.176025 
	C464.511749,613.474854 462.852966,609.997986 460.997437,606.221313 
	C455.713593,595.557190 450.626465,585.192932 445.353821,574.450745 
	C451.911041,571.117493 458.342072,567.848450 465.300262,564.258179 
	C467.254456,563.120850 468.681488,562.304749 470.458191,561.424683 
	C471.881683,560.859619 472.955536,560.358643 474.346497,559.779358 
	C476.451019,558.863037 478.238464,558.025085 480.025909,557.187073 
	C480.019440,569.249451 479.429230,581.346313 480.141052,593.366150 
	C481.255768,612.189758 484.097870,630.840881 489.554169,648.947510 
	C492.943329,660.194214 496.995728,671.241089 500.675293,682.700806 
	C500.342133,682.949402 500.078796,682.911621 499.810181,682.910583 
	C493.285645,670.144653 486.761108,657.378784 480.041077,644.311646 
	C475.454254,635.140320 471.062988,626.270325 466.421143,617.176025 
z"/>
<path fill="#DADAD9" opacity="1.000000" stroke="none" 
	d="
M281.034790,204.001175 
	C277.584503,204.001175 274.627441,204.001175 271.225494,204.001175 
	C271.122101,201.690140 270.603180,199.778473 271.102448,198.186005 
	C271.502258,196.910629 272.977600,195.681000 274.276245,195.068558 
	C275.367828,194.553726 276.892792,194.955673 278.225922,194.955658 
	C331.384338,194.954971 384.542786,194.954483 437.701202,194.954651 
	C445.549683,194.954681 445.549683,194.956192 444.592407,204.001175 
	C390.308868,204.001175 335.918427,204.001175 281.034790,204.001175 
z"/>
<path fill="#536694" opacity="1.000000" stroke="none" 
	d="
M505.178833,579.656128 
	C500.253418,570.810242 495.419342,561.489075 490.503174,552.009705 
	C488.816437,552.733398 487.320343,553.375305 485.158203,553.772217 
	C484.328552,551.734802 484.032257,549.943176 484.022461,548.149902 
	C483.950867,535.064697 483.936829,521.979187 483.904633,508.893738 
	C484.134644,508.284790 484.213654,507.542023 484.617126,507.086823 
	C491.148376,499.718353 497.720856,492.386383 504.622864,484.995361 
	C505.078613,488.754669 505.294312,492.564697 505.296417,496.374878 
	C505.311890,523.976868 505.284210,551.578918 505.178833,579.656128 
z"/>
<path fill="#DDDDDD" opacity="1.000000" stroke="none" 
	d="
M323.000000,224.966705 
	C307.173187,224.966705 291.846344,224.968979 276.519531,224.962799 
	C275.188232,224.962265 273.717560,225.245026 272.567749,224.772705 
	C271.569397,224.362610 270.934143,223.068588 270.138367,222.165192 
	C271.024658,221.442215 271.814484,220.485001 272.826782,220.068176 
	C273.682678,219.715744 274.796265,219.986160 275.795807,219.986145 
	C330.272675,219.985535 384.749542,219.985458 439.226410,219.985474 
	C440.059387,219.985474 441.049469,219.699615 441.691467,220.050247 
	C442.894226,220.707169 443.895386,221.733185 444.980408,222.605682 
	C443.970154,223.389862 443.062378,224.444687 441.919098,224.877518 
	C440.898224,225.264038 439.617340,224.966125 438.451172,224.966141 
	C400.134125,224.966660 361.817047,224.966660 323.000000,224.966705 
z"/>
<path fill="#DCDCDC" opacity="1.000000" stroke="none" 
	d="
M348.000000,232.003143 
	C378.488434,232.003098 408.476868,232.002960 438.465302,232.003265 
	C439.631500,232.003265 440.913208,231.703476 441.933136,232.090866 
	C443.072235,232.523514 443.973755,233.581665 444.978699,234.367584 
	C444.054413,235.234207 443.250397,236.337128 442.165924,236.888916 
	C441.370148,237.293808 440.206696,236.979965 439.207123,236.979980 
	C385.061340,236.980713 330.915558,236.980774 276.769775,236.980850 
	C276.103363,236.980850 275.306458,237.216156 274.795929,236.933884 
	C273.464783,236.197876 272.259094,235.234909 271.003387,234.362488 
	C272.178314,233.577164 273.274841,232.601883 274.555725,232.073318 
	C275.410278,231.720673 276.527405,232.003311 277.527008,232.003311 
	C300.851349,232.003113 324.175659,232.003143 348.000000,232.003143 
z"/>
<path fill="#DDDDDD" opacity="1.000000" stroke="none" 
	d="
M301.000000,255.995087 
	C347.152405,255.995056 392.804810,255.994980 438.457214,255.995224 
	C439.623505,255.995224 440.903625,255.696503 441.925781,256.081329 
	C443.066437,256.510742 443.972778,257.562561 444.981110,258.343475 
	C443.898743,259.220734 442.901001,260.251709 441.699768,260.913147 
	C441.059753,261.265533 440.067871,260.980347 439.234802,260.980347 
	C385.085052,260.980499 330.935303,260.980438 276.785553,260.979797 
	C275.785889,260.979797 274.623138,261.294067 273.826355,260.890015 
	C272.739319,260.338806 271.931244,259.237549 271.003601,258.372070 
	C272.005127,257.582275 272.987610,256.138092 274.011322,256.108246 
	C281.003235,255.904404 288.003845,255.997482 295.001648,255.995178 
	C296.834442,255.994568 298.667206,255.995102 301.000000,255.995087 
z"/>
<path fill="#DDDDDD" opacity="1.000000" stroke="none" 
	d="
M379.795654,545.209473 
	C386.047943,544.807129 392.027740,544.736084 398.462250,544.758789 
	C400.610626,545.246338 402.298157,545.945312 403.999115,545.979614 
	C410.661835,546.114319 417.332092,545.937744 423.990845,546.149353 
	C425.008484,546.181702 425.980621,547.647522 426.973816,548.450195 
	C426.037811,549.306091 425.218567,550.396057 424.127136,550.940002 
	C423.324890,551.339905 422.166321,551.028137 421.166534,551.028137 
	C372.675537,551.028870 324.184570,551.029053 275.693573,551.028503 
	C274.693848,551.028503 273.565948,551.307739 272.727570,550.937073 
	C271.732819,550.497314 270.987183,549.493835 270.133606,548.734680 
	C270.967468,547.861755 271.658051,546.558899 272.670410,546.221497 
	C274.026886,545.769348 275.632355,546.042175 277.130890,546.041931 
	C309.291565,546.036621 341.452271,546.045227 373.612915,546.014282 
	C375.583130,546.012329 377.553101,545.705627 379.795654,545.209473 
z"/>
<path fill="#DCDCDC" opacity="1.000000" stroke="none" 
	d="
M296.000000,244.019104 
	C326.150208,244.019363 355.800446,244.019516 385.450653,244.020157 
	C386.616669,244.020172 387.896698,243.722504 388.918335,244.107819 
	C390.060516,244.538574 390.968353,245.590652 391.978180,246.372314 
	C390.894531,247.245880 389.873383,248.221085 388.697174,248.943970 
	C388.212677,249.241730 387.394714,248.998520 386.728424,248.998520 
	C349.915497,248.998032 313.102600,248.997314 276.289673,248.995987 
	C275.456818,248.995956 274.452026,249.282944 273.829407,248.919174 
	C272.761017,248.294937 271.931335,247.262115 271.001434,246.400833 
	C272.004913,245.609558 272.989868,244.161575 274.014893,244.132599 
	C281.171936,243.930328 288.337311,244.021744 296.000000,244.019104 
z"/>
<path fill="#DCDCDC" opacity="1.000000" stroke="none" 
	d="
M367.741516,267.737701 
	C361.594940,269.704712 355.173676,271.350342 348.359100,272.960968 
	C346.233063,272.604767 344.501129,272.008942 342.767456,272.003937 
	C320.770538,271.940155 298.773346,271.963654 276.776245,271.955353 
	C275.278595,271.954803 273.644043,272.229797 272.329346,271.718231 
	C271.384796,271.350708 270.581940,269.957916 270.305969,268.872437 
	C270.201752,268.462646 271.689423,267.501953 272.579956,267.040466 
	C273.108429,266.766632 273.887634,266.970001 274.554077,266.970001 
	C304.383484,266.970001 334.212891,266.966400 364.042267,266.991150 
	C365.183868,266.992096 366.325287,267.268341 367.741516,267.737701 
z"/>
<path fill="#DADAD9" opacity="1.000000" stroke="none" 
	d="
M335.969208,534.992126 
	C339.702271,535.869080 343.149689,537.087158 346.815338,538.582275 
	C345.519226,539.254822 344.006012,539.989563 342.490387,539.994629 
	C320.230011,540.068298 297.969269,540.058594 275.708710,540.011536 
	C274.279480,540.008545 272.824005,539.627380 271.447083,539.205444 
	C271.192413,539.127441 271.018829,537.544250 271.212860,537.444580 
	C272.415283,536.827209 273.731445,536.034912 275.013397,536.028687 
	C293.286621,535.939880 311.560455,535.986694 329.833984,535.939453 
	C331.784332,535.934448 333.733734,535.544556 335.969208,534.992126 
z"/>
<path fill="#DCDCDC" opacity="1.000000" stroke="none" 
	d="
M315.604584,524.434692 
	C318.466492,525.630432 321.017059,527.088989 323.774658,528.815857 
	C322.571198,529.379089 321.161865,529.924377 319.750214,529.930298 
	C304.955017,529.992859 290.159485,529.969299 275.364044,529.968323 
	C274.699158,529.968323 273.852478,530.215637 273.404663,529.900879 
	C272.227264,529.073181 271.223419,527.998657 270.150452,527.022400 
	C271.245972,526.345886 272.331848,525.101074 273.438568,525.082275 
	C282.745361,524.923645 292.056152,525.020386 301.365417,524.975220 
	C306.008362,524.952698 310.650665,524.794434 315.604584,524.434692 
z"/>
<path fill="#DADAD9" opacity="1.000000" stroke="none" 
	d="
M330.778076,278.786438 
	C329.199860,280.167511 327.363922,281.206482 325.223083,282.261292 
	C309.451782,282.194305 293.985474,282.111053 278.519135,282.029449 
	C277.188446,282.022430 275.796509,282.270081 274.544342,281.955841 
	C273.321533,281.648987 272.241333,280.773682 271.098541,280.147949 
	C272.305145,279.418243 273.504120,278.069305 274.719513,278.054352 
	C287.359558,277.898834 300.002502,277.907654 312.644043,277.979370 
	C318.603516,278.013184 324.561646,278.282043 330.778076,278.786438 
z"/>
<path fill="#39414B" opacity="1.000000" stroke="none" 
	d="
M470.108521,561.488647 
	C468.681488,562.304749 467.254456,563.120850 465.514954,563.973877 
	C459.958252,553.470764 454.714050,542.930786 449.270508,532.091125 
	C450.480225,531.194702 451.889252,530.597839 453.733948,530.342712 
	C459.482605,540.952515 464.795563,551.220581 470.108521,561.488647 
z"/>
<path fill="#DCDCDC" opacity="1.000000" stroke="none" 
	d="
M312.757874,288.800659 
	C311.370209,290.410828 309.706879,291.699554 307.734772,293.051208 
	C296.138489,293.081299 284.850128,293.102631 273.564667,292.932861 
	C272.420532,292.915649 271.293732,291.747406 270.158875,291.113342 
	C271.179108,290.091125 272.195374,288.185272 273.220215,288.180664 
	C286.306824,288.121674 299.394684,288.335022 312.757874,288.800659 
z"/>
<path fill="#DCDCDC" opacity="1.000000" stroke="none" 
	d="
M299.767487,513.239258 
	C301.965820,514.364014 303.879333,515.803406 305.918457,517.543091 
	C305.519104,518.200317 304.995758,518.866089 304.468872,518.868896 
	C293.222900,518.928833 281.976471,518.914368 270.643402,518.914368 
	C270.291931,515.082825 271.746826,513.911316 275.165466,513.936584 
	C283.269836,513.996460 291.376801,513.703979 299.767487,513.239258 
z"/>
<path fill="#DADAD9" opacity="1.000000" stroke="none" 
	d="
M432.029510,272.970276 
	C424.389374,271.681488 417.009674,270.032013 409.322693,268.151917 
	C410.745087,267.606354 412.472107,267.037048 414.204834,267.019165 
	C423.166809,266.926758 432.132599,266.874908 441.090576,267.085205 
	C442.406464,267.116058 443.687683,268.625549 444.984924,269.450928 
	C443.693390,270.284698 442.491058,271.588531 441.091705,271.853973 
	C438.213593,272.399902 435.230072,272.390503 432.029510,272.970276 
z"/>
<path fill="#DCDCDC" opacity="1.000000" stroke="none" 
	d="
M286.913391,501.085144 
	C289.099854,502.589783 291.009430,504.436005 293.046692,506.590637 
	C286.895630,506.939240 280.612946,507.104004 274.341705,506.905792 
	C273.201324,506.869751 272.107880,505.349487 270.992737,504.514343 
	C272.115417,503.684937 273.169586,502.273987 274.373260,502.132172 
	C278.432373,501.653900 282.544586,501.626556 286.913391,501.085144 
z"/>
<path fill="#A74B43" opacity="1.000000" stroke="none" 
	d="
M500.596008,684.726685 
	C501.583344,685.710938 502.849518,686.940369 503.665710,688.418152 
	C509.803040,699.530823 515.851746,710.692505 522.076416,722.192139 
	C521.051880,722.107849 519.227478,722.005188 518.804382,721.182190 
	C512.648315,709.206970 506.679779,697.135437 500.596008,684.726685 
z"/>
<path fill="#DADAD9" opacity="1.000000" stroke="none" 
	d="
M428.209595,540.081299 
	C432.745728,537.913757 437.547729,536.080811 442.714386,534.206665 
	C443.877350,536.065125 444.675629,537.964844 445.705627,540.416016 
	C439.168823,540.416016 433.822174,540.416016 428.209595,540.081299 
z"/>
<path fill="#DADAD9" opacity="1.000000" stroke="none" 
	d="
M276.994629,489.019440 
	C278.775146,490.575775 280.303528,492.460449 281.938416,494.659210 
	C279.261139,494.979218 276.451782,495.207642 273.705200,494.891052 
	C272.454315,494.746857 271.327545,493.525635 270.144470,492.792908 
	C271.246887,491.868195 272.249695,490.764465 273.484344,490.077179 
	C274.416779,489.558105 275.645630,489.571442 276.994629,489.019440 
z"/>
<path fill="#A74B43" opacity="1.000000" stroke="none" 
	d="
M499.795105,683.122925 
	C500.078796,682.911621 500.342133,682.949402 500.797333,683.057861 
	C500.932922,683.310608 500.871338,683.529480 500.640930,684.045959 
	C500.241425,684.007507 500.010742,683.671326 499.795105,683.122925 
z"/>
<path fill="#475B8D" opacity="1.000000" stroke="none" 
	d="
M80.953873,98.255005 
	C81.207565,98.190102 81.381599,98.359230 81.512535,98.556915 
	C81.535133,98.591026 81.374863,98.746269 81.128609,98.928741 
	C80.925316,98.840851 80.892479,98.669785 80.953873,98.255005 
z"/>
<path fill="#536794" opacity="1.000000" stroke="none" 
	d="
M474.752136,92.275909 
	C474.902100,92.554550 474.760590,92.733780 474.387756,92.921555 
	C474.075897,92.631882 474.177338,92.380684 474.752136,92.275909 
z"/>
<path fill="#D0E7F1" opacity="1.000000" stroke="none" 
	d="
M318.812958,323.701813 
	C340.643005,304.996460 365.993713,296.330597 394.626801,297.780701 
	C425.773804,299.358093 451.459137,312.432861 471.982208,335.800690 
	C472.846313,336.784576 473.459534,337.988770 474.157166,339.885803 
	C474.080841,365.820679 474.002106,390.960114 474.006470,416.099548 
	C474.009003,430.746552 474.144531,445.393555 474.123901,460.349609 
	C473.928375,461.078522 473.829163,461.498413 473.342407,461.930725 
	C470.885956,462.495270 468.786316,462.953003 466.753143,463.614868 
	C455.064789,467.419769 443.175262,469.750732 430.807861,470.114716 
	C415.366760,470.569122 400.501434,468.173462 386.312439,462.685181 
	C397.386230,462.260040 408.170197,462.200104 418.948883,461.930603 
	C420.742950,461.885773 422.514130,460.928131 424.604645,460.651062 
	C425.921967,460.882263 426.930511,460.854767 428.212372,461.156006 
	C432.242065,461.656494 436.028198,461.591949 439.747406,462.059662 
	C444.403046,462.645081 445.181335,460.500793 445.131104,456.406769 
	C445.086456,452.769928 442.356628,452.879913 440.600189,451.465637 
	C465.546112,427.966156 466.293030,393.526581 454.650543,373.269623 
	C453.289551,373.938507 451.900116,374.621399 450.365082,375.375824 
	C451.401886,378.122406 452.365295,380.576904 453.258911,383.056580 
	C462.721283,409.313904 450.916412,441.444763 426.839233,453.935120 
	C425.126953,453.388275 423.675690,453.021149 422.223877,453.018768 
	C403.808685,452.988495 385.393372,453.010681 366.637634,452.977509 
	C364.862915,452.306885 363.428619,451.678192 361.814758,450.768005 
	C351.237701,442.897552 341.581757,434.535156 334.477844,423.998291 
	C364.070129,423.996094 393.195038,424.028656 422.319244,423.896759 
	C423.862793,423.889801 426.560638,422.693481 426.731903,421.705811 
	C427.351318,418.134277 424.250977,419.031189 422.316010,419.029236 
	C391.860046,418.998383 361.404083,419.027893 330.714661,419.032684 
	C330.481262,419.021881 330.015320,418.986267 329.877380,418.677612 
	C328.811768,416.582153 327.884094,414.795349 327.429993,413.004639 
	C365.366150,412.998901 402.828735,413.008698 440.291290,412.961731 
	C442.219391,412.959320 445.324646,413.885010 444.734955,410.309082 
	C444.572632,409.324768 441.877808,408.100739 440.341888,408.096344 
	C401.547760,407.985748 362.753204,408.023346 323.730469,408.019714 
	C323.502228,408.004547 323.046265,407.967010 322.999329,407.616577 
	C322.306488,405.511993 321.660583,403.757812 321.481720,402.003174 
	C361.406677,402.001709 400.864716,402.026245 440.322266,401.904633 
	C441.863983,401.899902 444.562439,400.696381 444.732361,399.709045 
	C445.347046,396.137299 442.245880,397.034485 440.310608,397.033234 
	C399.854034,397.007202 359.397400,397.034668 318.710541,397.038116 
	C318.480286,397.024597 318.020660,396.985687 317.978088,396.622833 
	C317.603668,394.847290 317.271820,393.434570 317.242920,391.724243 
	C319.354675,391.284790 321.163422,391.020386 322.972290,391.019257 
	C361.618530,390.995483 400.264771,391.001648 438.911011,390.999451 
	C440.243378,390.999390 441.624847,391.180328 442.889679,390.880859 
	C443.642639,390.702606 444.676941,389.789520 444.732941,389.134033 
	C444.788300,388.485382 443.892120,387.316101 443.205322,387.125824 
	C441.148132,386.555817 438.989532,386.053284 436.869934,386.050995 
	C396.225098,386.007141 355.580109,386.038818 314.706268,386.038940 
	C314.477356,386.022980 314.019714,385.988617 314.017822,385.590790 
	C313.690063,383.131714 313.364197,381.070435 313.502747,379.008484 
	C337.905670,379.007141 361.844208,379.007172 385.782715,379.004181 
	C387.112366,379.003998 388.521362,379.242065 389.744263,378.873871 
	C390.581787,378.621704 391.160309,377.509186 391.854614,376.781281 
	C391.180328,376.200439 390.581573,375.288666 389.814636,375.113525 
	C388.547821,374.824280 387.172424,374.998566 385.842804,374.998108 
	C361.239349,374.989349 336.635895,374.983612 312.020844,374.982727 
	C312.009247,374.988190 311.986023,375.000854 311.978455,374.598633 
	C311.658966,371.799988 311.347076,369.403564 311.499939,367.005432 
	C354.108917,367.003357 396.253143,367.003082 438.397339,367.001648 
	C439.729858,367.001587 441.116760,367.213745 442.376770,366.908264 
	C443.294434,366.685730 444.044739,365.772827 444.869690,365.167786 
	C444.188446,364.386871 443.632690,363.141602 442.801147,362.916870 
	C440.753571,362.363495 438.579529,362.043549 436.455841,362.040863 
	C394.311707,361.987427 352.167542,361.992554 310.014282,361.547791 
	C309.983582,359.064301 309.962036,357.018860 309.954742,354.979309 
	C309.969025,354.985229 309.994568,354.994385 310.463776,354.996460 
	C353.552734,354.999420 396.172485,355.001434 438.792236,354.996613 
	C440.288177,354.996460 441.874817,355.214111 443.244171,354.779205 
	C443.998749,354.539581 444.737427,353.184174 444.825378,352.268585 
	C444.888855,351.607666 443.993591,350.422577 443.303253,350.216278 
	C442.072174,349.848358 440.672821,350.008820 439.343811,350.008759 
	C396.224640,350.006317 353.105438,350.011108 309.971802,350.015533 
	C309.957367,350.016266 309.928650,350.032837 309.946411,349.575714 
	C310.643951,344.083801 311.323730,339.049042 312.471954,334.012268 
	C328.262085,334.009277 343.583771,334.007751 358.905487,334.007446 
	C385.884979,334.006958 412.864532,333.979553 439.843872,334.044373 
	C442.989929,334.051910 445.101776,334.009613 445.160950,329.715454 
	C445.221436,325.328400 443.290283,324.940460 439.765381,324.948242 
	C401.461334,325.032593 363.157013,325.020081 324.852936,324.944763 
	C322.838806,324.940796 320.826233,324.134552 318.812958,323.701813 
z"/>
<path fill="#A5D2E4" opacity="1.000000" stroke="none" 
	d="
M386.020813,462.980194 
	C400.501434,468.173462 415.366760,470.569122 430.807861,470.114716 
	C443.175262,469.750732 455.064789,467.419769 466.753143,463.614868 
	C468.786316,462.953003 470.885956,462.495270 473.439941,462.388855 
	C474.082367,465.968384 474.239746,469.102295 474.397095,472.236206 
	C466.411652,484.321777 455.326263,493.022736 442.927032,499.974487 
	C415.093872,515.579407 385.822205,518.442200 355.330994,508.243591 
	C357.072174,507.460999 358.848358,507.045959 360.627625,507.032410 
	C369.606873,506.963989 378.589783,507.112823 387.563904,506.887787 
	C389.047302,506.850555 390.493744,505.337616 391.957245,504.506592 
	C390.496979,503.671936 389.046326,502.132538 387.574921,502.112457 
	C373.941498,501.926300 360.304291,501.966949 346.668823,502.049072 
	C345.071899,502.058685 343.478821,502.716125 341.883942,503.073242 
	C337.524231,500.641479 333.164490,498.209717 329.095154,495.437592 
	C365.859070,495.064392 402.332550,495.032867 438.806061,494.994263 
	C440.302490,494.992676 441.890472,495.211273 443.258911,494.773834 
	C444.010284,494.533600 444.740234,493.166840 444.822479,492.249084 
	C444.881683,491.588593 443.989044,490.461212 443.280518,490.203735 
	C442.240631,489.825836 440.985992,490.005219 439.822845,490.005035 
	C402.515778,489.999237 365.208649,489.983643 327.901703,490.055511 
	C326.226807,490.058716 324.553436,490.864441 322.879333,491.296326 
	C319.871338,488.769348 316.863373,486.242371 314.184631,483.381287 
	C323.676392,483.031067 332.838959,483.002625 342.001526,483.001007 
	C374.820892,482.995148 407.640350,483.029968 440.459167,482.896423 
	C441.959717,482.890320 443.454254,481.398895 444.951569,480.599243 
	C443.521973,479.732910 442.093903,478.112610 440.662537,478.109650 
	C396.682831,478.018158 352.702820,478.085236 308.722839,478.127747 
	C304.802277,472.994293 300.881714,467.860840 297.379517,462.370850 
	C323.962646,462.009583 350.127441,462.024994 376.291992,461.958069 
	C378.191864,461.953217 380.090210,461.350403 382.289124,461.156616 
	C383.732941,461.851807 384.876862,462.416016 386.020813,462.980194 
z"/>
<path fill="#A5D2E4" opacity="1.000000" stroke="none" 
	d="
M334.010345,423.998779 
	C341.581757,434.535156 351.237701,442.897552 361.723206,451.158997 
	C359.969818,452.219696 358.129883,452.937561 356.286804,452.945801 
	C334.820801,453.041809 313.354309,453.030853 291.887970,453.048218 
	C288.747955,443.664185 285.607910,434.280151 282.943726,424.462341 
	C299.945984,424.016998 316.472382,424.005432 333.251678,423.995483 
	C333.673187,423.997650 333.841766,423.998199 334.010345,423.998779 
z"/>
<path fill="#C2D7E2" opacity="1.000000" stroke="none" 
	d="
M318.508667,323.845306 
	C320.826233,324.134552 322.838806,324.940796 324.852936,324.944763 
	C363.157013,325.020081 401.461334,325.032593 439.765381,324.948242 
	C443.290283,324.940460 445.221436,325.328400 445.160950,329.715454 
	C445.101776,334.009613 442.989929,334.051910 439.843872,334.044373 
	C412.864532,333.979553 385.884979,334.006958 358.905487,334.007446 
	C343.583771,334.007751 328.262085,334.009277 312.469177,333.621643 
	C312.008301,332.194031 312.018585,331.155029 312.028900,330.116058 
	C314.087402,328.073639 316.145905,326.031219 318.508667,323.845306 
z"/>
<path fill="#6C8FB1" opacity="1.000000" stroke="none" 
	d="
M474.220215,460.040527 
	C474.144531,445.393555 474.009003,430.746552 474.006470,416.099548 
	C474.002106,390.960114 474.080841,365.820679 474.277222,340.213745 
	C477.987305,345.208618 481.544830,350.671051 484.823608,356.781891 
	C484.363281,358.555725 484.024231,359.680969 484.023163,360.806549 
	C483.994293,391.154755 483.986694,421.503021 484.042938,451.851135 
	C484.045502,453.237915 484.675232,454.623474 485.012848,456.009613 
	C485.012848,456.009613 484.985565,456.488708 484.538879,456.731323 
	C480.801544,457.996155 477.510864,459.018341 474.220215,460.040527 
z"/>
<path fill="#7197BB" opacity="1.000000" stroke="none" 
	d="
M485.275360,455.788605 
	C484.675232,454.623474 484.045502,453.237915 484.042938,451.851135 
	C483.986694,421.503021 483.994293,391.154755 484.023163,360.806549 
	C484.024231,359.680969 484.363281,358.555725 484.874603,357.138367 
	C488.580658,365.764435 492.948578,374.445984 495.142670,383.645935 
	C501.114136,408.684265 497.134857,432.712616 485.275360,455.788605 
z"/>
<path fill="#9DC6D5" opacity="1.000000" stroke="none" 
	d="
M291.940125,453.400085 
	C313.354309,453.030853 334.820801,453.041809 356.286804,452.945801 
	C358.129883,452.937561 359.969818,452.219696 361.902771,451.440491 
	C363.428619,451.678192 364.862915,452.306885 366.800842,453.279602 
	C372.199402,456.090912 377.094330,458.558228 381.989258,461.025574 
	C380.090210,461.350403 378.191864,461.953217 376.291992,461.958069 
	C350.127441,462.024994 323.962646,462.009583 297.316650,462.023010 
	C295.221008,459.271790 293.606659,456.511871 291.940125,453.400085 
z"/>
<path fill="#9DC6D5" opacity="1.000000" stroke="none" 
	d="
M308.866272,478.422882 
	C352.702820,478.085236 396.682831,478.018158 440.662537,478.109650 
	C442.093903,478.112610 443.521973,479.732910 444.951569,480.599243 
	C443.454254,481.398895 441.959717,482.890320 440.459167,482.896423 
	C407.640350,483.029968 374.820892,482.995148 342.001526,483.001007 
	C332.838959,483.002625 323.676392,483.031067 314.002869,483.080139 
	C311.997864,481.648010 310.503784,480.183014 308.866272,478.422882 
z"/>
<path fill="#9DC6D5" opacity="1.000000" stroke="none" 
	d="
M323.045654,491.566101 
	C324.553436,490.864441 326.226807,490.058716 327.901703,490.055511 
	C365.208649,489.983643 402.515778,489.999237 439.822845,490.005035 
	C440.985992,490.005219 442.240631,489.825836 443.280518,490.203735 
	C443.989044,490.461212 444.881683,491.588593 444.822479,492.249084 
	C444.740234,493.166840 444.010284,494.533600 443.258911,494.773834 
	C441.890472,495.211273 440.302490,494.992676 438.806061,494.994263 
	C402.332550,495.032867 365.859070,495.064392 328.863983,495.161377 
	C326.632233,494.095642 324.922089,492.965759 323.045654,491.566101 
z"/>
<path fill="#F9F9FA" opacity="1.000000" stroke="none" 
	d="
M470.458191,561.424683 
	C464.795563,551.220581 459.482605,540.952515 454.078674,530.342407 
	C457.580994,527.536804 461.167114,525.062561 464.769958,522.612976 
	C467.609650,520.682190 470.469940,518.781677 473.660278,517.339172 
	C474.009430,531.826294 474.019409,545.841980 474.029358,559.857666 
	C472.955536,560.358643 471.881683,560.859619 470.458191,561.424683 
z"/>
<path fill="#485981" opacity="1.000000" stroke="none" 
	d="
M474.346466,559.779358 
	C474.019409,545.841980 474.009430,531.826294 474.021118,517.331909 
	C477.107086,514.245667 480.171387,511.638123 483.570160,508.962158 
	C483.936829,521.979187 483.950867,535.064697 484.022461,548.149902 
	C484.032257,549.943176 484.328552,551.734802 484.808044,553.823730 
	C483.616241,555.024231 482.108582,555.928284 480.313416,557.009705 
	C478.238464,558.025085 476.451019,558.863037 474.346466,559.779358 
z"/>
<path fill="#A5D2E4" opacity="1.000000" stroke="none" 
	d="
M326.956451,413.008545 
	C327.884094,414.795349 328.811768,416.582153 329.407104,418.682556 
	C313.340820,419.004395 297.606934,419.012634 281.873016,419.020874 
	C281.610718,417.276123 281.348419,415.531403 281.603546,413.400208 
	C296.735443,413.008789 311.349915,413.003784 326.212341,413.003845 
	C326.460327,413.008911 326.956451,413.008545 326.956451,413.008545 
z"/>
<path fill="#9DC6D5" opacity="1.000000" stroke="none" 
	d="
M281.828674,419.389282 
	C297.606934,419.012634 313.340820,419.004395 329.545044,418.991211 
	C330.015320,418.986267 330.481262,419.021881 330.765076,419.370300 
	C331.698883,421.143768 332.348846,422.568817 332.998779,423.993896 
	C316.472382,424.005432 299.945984,424.016998 282.899872,424.036560 
	C282.181549,422.615631 281.982941,421.186646 281.828674,419.389282 
z"/>
<path fill="#A5D2E4" opacity="1.000000" stroke="none" 
	d="
M321.014709,402.003662 
	C321.660583,403.757812 322.306488,405.511993 322.525757,407.628387 
	C308.424835,407.990601 294.750580,407.990570 281.076294,407.990570 
	C281.034271,406.278564 280.992279,404.566559 281.503296,402.432312 
	C294.706696,402.005920 307.356995,402.001740 320.259155,401.999054 
	C320.678925,402.001587 320.846832,402.002625 321.014709,402.003662 
z"/>
<path fill="#9DC6D5" opacity="1.000000" stroke="none" 
	d="
M342.115479,503.341125 
	C343.478821,502.716125 345.071899,502.058685 346.668823,502.049072 
	C360.304291,501.966949 373.941498,501.926300 387.574921,502.112457 
	C389.046326,502.132538 390.496979,503.671936 391.957245,504.506592 
	C390.493744,505.337616 389.047302,506.850555 387.563904,506.887787 
	C378.589783,507.112823 369.606873,506.963989 360.627625,507.032410 
	C358.848358,507.045959 357.072174,507.460999 355.017426,508.051147 
	C350.609222,506.810577 346.478119,505.209778 342.115479,503.341125 
z"/>
<path fill="#9DC6D5" opacity="1.000000" stroke="none" 
	d="
M281.013794,408.408142 
	C294.750580,407.990570 308.424835,407.990601 322.572693,407.978821 
	C323.046265,407.967010 323.502228,408.004547 323.778320,408.358124 
	C324.691101,410.140717 325.327728,411.569763 325.964355,412.998779 
	C311.349915,413.003784 296.735443,413.008789 281.668060,413.019440 
	C281.127167,411.625305 281.039246,410.225494 281.013794,408.408142 
z"/>
<path fill="#A5D2E4" opacity="1.000000" stroke="none" 
	d="
M313.038330,379.009186 
	C313.364197,381.070435 313.690063,383.131714 313.547028,385.597229 
	C302.954956,386.320312 292.831757,386.639069 282.708618,386.957825 
	C283.188904,384.455292 283.669189,381.952728 284.831726,379.186951 
	C294.355560,378.947479 303.197174,378.971313 312.288696,378.996521 
	C312.538605,378.997925 313.038330,379.009186 313.038330,379.009186 
z"/>
<path fill="#A5D2E4" opacity="1.000000" stroke="none" 
	d="
M316.939972,392.021881 
	C317.271820,393.434570 317.603668,394.847290 317.507202,396.628418 
	C305.156921,396.986237 293.234924,396.975616 281.312958,396.964966 
	C281.475098,395.219727 281.637238,393.474487 282.377777,391.365112 
	C293.959534,390.995087 304.962891,390.989197 316.075439,391.202576 
	C316.373901,391.700500 316.625702,391.900513 316.939972,392.021881 
z"/>
<path fill="#A5D2E4" opacity="1.000000" stroke="none" 
	d="
M311.035156,367.007111 
	C311.347076,369.403564 311.658966,371.799988 311.511353,374.597595 
	C302.523376,374.980377 293.994934,374.962006 285.466492,374.943604 
	C286.244934,372.518707 287.023407,370.093781 288.444397,367.341095 
	C296.073090,367.006836 303.059204,367.000366 310.292847,366.994537 
	C310.540314,366.995178 311.035156,367.007111 311.035156,367.007111 
z"/>
<path fill="#9DC6D5" opacity="1.000000" stroke="none" 
	d="
M281.208191,397.376404 
	C293.234924,396.975616 305.156921,396.986237 317.549774,396.991272 
	C318.020660,396.985687 318.480286,397.024597 318.731964,397.401337 
	C319.324860,399.184570 319.666077,400.591064 320.007324,401.997559 
	C307.356995,402.001740 294.706696,402.005920 281.598175,402.013489 
	C281.127777,400.607147 281.115601,399.197479 281.208191,397.376404 
z"/>
<path fill="#9DC6D5" opacity="1.000000" stroke="none" 
	d="
M315.966278,390.983337 
	C304.962891,390.989197 293.959534,390.995087 282.489136,391.002075 
	C282.114807,389.842194 282.207458,388.681244 282.504333,387.239075 
	C292.831757,386.639069 302.954956,386.320312 313.548920,385.995056 
	C314.019714,385.988617 314.477356,386.022980 314.729492,386.400757 
	C315.309845,388.180145 315.638062,389.581757 315.966278,390.983337 
z"/>
<path fill="#A5D2E4" opacity="1.000000" stroke="none" 
	d="
M311.737793,330.267517 
	C312.018585,331.155029 312.008301,332.194031 312.000763,333.623627 
	C311.323730,339.049042 310.643951,344.083801 309.506409,349.565674 
	C304.932892,349.975708 300.817108,349.938660 296.701355,349.901611 
	C301.616455,343.407410 306.531586,336.913177 311.737793,330.267517 
z"/>
<path fill="#A5D2E4" opacity="1.000000" stroke="none" 
	d="
M309.940460,354.973419 
	C309.962036,357.018860 309.983582,359.064301 310.003448,361.802948 
	C309.995972,362.666229 309.990173,362.836273 309.517029,363.002197 
	C302.709839,363.000305 296.370056,363.002594 290.030243,363.004883 
	C291.134827,360.465271 292.239410,357.925659 294.074982,355.180725 
	C299.850769,354.974731 304.895630,354.974091 309.940460,354.973419 
z"/>
<path fill="#9DC6D5" opacity="1.000000" stroke="none" 
	d="
M285.295288,375.226013 
	C293.994934,374.962006 302.523376,374.980377 311.518921,374.999817 
	C311.986023,375.000854 312.009247,374.988190 312.012299,375.385132 
	C312.023163,376.853088 312.030975,377.924103 312.038757,378.995117 
	C303.197174,378.971313 294.355560,378.947479 285.004456,378.861115 
	C284.704681,377.701843 284.914398,376.605133 285.295288,375.226013 
z"/>
<path fill="#9DC6D5" opacity="1.000000" stroke="none" 
	d="
M289.785492,363.212830 
	C296.370056,363.002594 302.709839,363.000305 309.528503,363.400787 
	C310.020020,364.866974 310.032684,365.930450 310.045349,366.993896 
	C303.059204,367.000366 296.073090,367.006836 288.631592,367.018036 
	C288.631042,365.822113 289.085876,364.621460 289.785492,363.212830 
z"/>
<path fill="#5485A6" opacity="1.000000" stroke="none" 
	d="
M474.123901,460.349609 
	C477.510864,459.018341 480.801544,457.996155 484.471527,456.961609 
	C481.563873,461.958282 478.276947,466.967346 474.693573,472.106323 
	C474.239746,469.102295 474.082367,465.968384 473.827515,462.376373 
	C473.829163,461.498413 473.928375,461.078522 474.123901,460.349609 
z"/>
<path fill="#9DC6D5" opacity="1.000000" stroke="none" 
	d="
M309.954742,354.979309 
	C304.895630,354.974091 299.850769,354.974731 294.328430,354.955200 
	C294.632019,353.387939 295.413147,351.840820 296.447815,350.097656 
	C300.817108,349.938660 304.932892,349.975708 309.488647,350.022797 
	C309.928650,350.032837 309.957367,350.016266 309.970215,350.430084 
	C309.986938,352.227386 309.990753,353.610901 309.994568,354.994385 
	C309.994568,354.994385 309.969025,354.985229 309.954742,354.979309 
z"/>
<path fill="#FCFDFD" opacity="1.000000" stroke="none" 
	d="
M284.801727,36.563122 
	C304.141815,30.980339 322.914185,46.265923 322.746521,63.753155 
	C303.034180,63.753155 283.318085,63.753155 263.614532,63.753155 
	C262.351440,52.906960 271.512421,41.076359 284.801727,36.563122 
z"/>
<path fill="#FAFAFC" opacity="1.000000" stroke="none" 
	d="
M351.135742,69.749634 
	C360.615967,69.767593 369.610291,69.747612 378.603973,69.814507 
	C387.256592,69.878853 392.949402,75.544342 392.980072,84.158943 
	C393.027435,97.458839 392.992523,110.759018 392.992523,124.424332 
	C390.219025,124.424332 387.810333,124.424332 384.782196,124.424332 
	C384.684570,122.775597 384.496033,121.028946 384.491516,119.281815 
	C384.462158,107.956009 384.507629,96.629951 384.455566,85.304306 
	C384.430298,79.806435 382.809357,78.150124 377.285645,78.108826 
	C367.143951,78.032997 357.001312,78.087204 346.472290,78.087204 
	C346.472290,75.363388 346.472290,72.969055 346.472290,70.103310 
	C347.800476,69.990868 349.225006,69.870277 351.135742,69.749634 
z"/>
<path fill="#6E914B" opacity="1.000000" stroke="none" 
	d="
M213.320862,370.349365 
	C201.257721,387.454193 189.390198,404.256958 177.045700,421.735107 
	C166.152954,403.217621 155.678528,385.411255 145.204102,367.604919 
	C145.469254,367.333405 145.734406,367.061859 145.999542,366.790314 
	C156.505264,374.170013 167.010986,381.549713 177.781708,389.115570 
	C197.258438,370.877686 216.622482,352.745300 235.986526,334.612946 
	C236.524261,335.048828 237.062012,335.484711 237.599747,335.920593 
	C229.572006,347.296173 221.544266,358.671753 213.320862,370.349365 
z"/>
<path fill="#6E914B" opacity="1.000000" stroke="none" 
	d="
M146.305054,494.691162 
	C154.661224,500.405151 163.019562,506.115936 171.371948,511.835419 
	C173.420303,513.238037 175.449295,514.668945 177.780106,516.290649 
	C197.598495,497.735229 217.313812,479.276337 237.029114,460.817444 
	C237.487732,461.194641 237.946350,461.571838 238.404984,461.949036 
	C218.141266,490.692352 197.877548,519.435730 177.041000,548.991577 
	C166.367523,530.756531 156.153564,513.306519 146.004822,495.390564 
	C146.070038,494.924622 146.305054,494.691193 146.305054,494.691162 
z"/>
<path fill="#6E914B" opacity="1.000000" stroke="none" 
	d="
M145.951096,495.039886 
	C145.641876,494.933228 145.451584,494.711273 145.261292,494.489380 
	C145.513489,494.435059 145.765671,494.380768 146.161453,494.508850 
	C146.305054,494.691193 146.070038,494.924622 145.951096,495.039886 
z"/>
<path fill="#6E914B" opacity="1.000000" stroke="none" 
	d="
M146.036316,233.956833 
	C155.176056,240.278778 164.414017,246.465515 173.401550,252.996918 
	C176.494659,255.244736 178.425293,255.399948 181.363953,252.607513 
	C200.529144,234.395920 219.888321,216.388474 240.153244,199.043442 
	C219.304550,228.607117 198.455856,258.170807 176.995819,288.601379 
	C166.377380,270.339081 156.072845,252.616684 145.851807,234.479324 
	C145.935287,234.064377 146.036316,233.956833 146.036316,233.956833 
z"/>
<path fill="#6E914B" opacity="1.000000" stroke="none" 
	d="
M145.883942,234.117355 
	C145.652008,234.009216 145.471390,233.848083 145.290787,233.686981 
	C145.485199,233.654282 145.679596,233.621582 145.955170,233.772858 
	C146.036316,233.956833 145.935287,234.064377 145.883942,234.117355 
z"/>
<path fill="#C2D8E2" opacity="1.000000" stroke="none" 
	d="
M310.463776,354.996460 
	C309.990753,353.610901 309.986938,352.227386 309.984680,350.429352 
	C353.105438,350.011108 396.224640,350.006317 439.343811,350.008759 
	C440.672821,350.008820 442.072174,349.848358 443.303253,350.216278 
	C443.993591,350.422577 444.888855,351.607666 444.825378,352.268585 
	C444.737427,353.184174 443.998749,354.539581 443.244171,354.779205 
	C441.874817,355.214111 440.288177,354.996460 438.792236,354.996613 
	C396.172485,355.001434 353.552734,354.999420 310.463776,354.996460 
z"/>
<path fill="#C4D9E3" opacity="1.000000" stroke="none" 
	d="
M310.292847,366.994537 
	C310.032684,365.930450 310.020020,364.866974 309.995880,363.404907 
	C309.990173,362.836273 309.995972,362.666229 310.012573,362.240967 
	C352.167542,361.992554 394.311707,361.987427 436.455841,362.040863 
	C438.579529,362.043549 440.753571,362.363495 442.801147,362.916870 
	C443.632690,363.141602 444.188446,364.386871 444.869690,365.167786 
	C444.044739,365.772827 443.294434,366.685730 442.376770,366.908264 
	C441.116760,367.213745 439.729858,367.001587 438.397339,367.001648 
	C396.253143,367.003082 354.108917,367.003357 311.499939,367.005432 
	C311.035156,367.007111 310.540314,366.995178 310.292847,366.994537 
z"/>
<path fill="#C4D9E3" opacity="1.000000" stroke="none" 
	d="
M316.075439,391.202576 
	C315.638062,389.581757 315.309845,388.180145 314.958405,386.416718 
	C355.580109,386.038818 396.225098,386.007141 436.869934,386.050995 
	C438.989532,386.053284 441.148132,386.555817 443.205322,387.125824 
	C443.892120,387.316101 444.788300,388.485382 444.732941,389.134033 
	C444.676941,389.789520 443.642639,390.702606 442.889679,390.880859 
	C441.624847,391.180328 440.243378,390.999390 438.911011,390.999451 
	C400.264771,391.001648 361.618530,390.995483 322.972290,391.019257 
	C321.163422,391.020386 319.354675,391.284790 317.242920,391.724243 
	C316.625702,391.900513 316.373901,391.700500 316.075439,391.202576 
z"/>
<path fill="#C2D8E2" opacity="1.000000" stroke="none" 
	d="
M320.259155,401.999054 
	C319.666077,400.591064 319.324860,399.184570 318.962219,397.414856 
	C359.397400,397.034668 399.854034,397.007202 440.310608,397.033234 
	C442.245880,397.034485 445.347046,396.137299 444.732361,399.709045 
	C444.562439,400.696381 441.863983,401.899902 440.322266,401.904633 
	C400.864716,402.026245 361.406677,402.001709 321.481720,402.003174 
	C320.846832,402.002625 320.678925,402.001587 320.259155,401.999054 
z"/>
<path fill="#C2D8E2" opacity="1.000000" stroke="none" 
	d="
M326.212341,413.003845 
	C325.327728,411.569763 324.691101,410.140717 324.006592,408.373291 
	C362.753204,408.023346 401.547760,407.985748 440.341888,408.096344 
	C441.877808,408.100739 444.572632,409.324768 444.734955,410.309082 
	C445.324646,413.885010 442.219391,412.959320 440.291290,412.961731 
	C402.828735,413.008698 365.366150,412.998901 327.429993,413.004639 
	C326.956451,413.008545 326.460327,413.008911 326.212341,413.003845 
z"/>
<path fill="#39414B" opacity="1.000000" stroke="none" 
	d="
M427.100006,454.284363 
	C450.916412,441.444763 462.721283,409.313904 453.258911,383.056580 
	C452.365295,380.576904 451.401886,378.122406 450.365082,375.375824 
	C451.900116,374.621399 453.289551,373.938507 454.650543,373.269623 
	C466.293030,393.526581 465.546112,427.966156 440.310303,451.590454 
	C435.857117,454.940186 431.898102,457.883728 427.939087,460.827271 
	C426.930511,460.854767 425.921967,460.882263 424.547180,460.346191 
	C421.614960,456.070923 425.854645,455.972504 427.100006,454.284363 
z"/>
<path fill="#C2D8E2" opacity="1.000000" stroke="none" 
	d="
M333.251678,423.995483 
	C332.348846,422.568817 331.698883,421.143768 330.998505,419.381104 
	C361.404083,419.027893 391.860046,418.998383 422.316010,419.029236 
	C424.250977,419.031189 427.351318,418.134277 426.731903,421.705811 
	C426.560638,422.693481 423.862793,423.889801 422.319244,423.896759 
	C393.195038,424.028656 364.070129,423.996094 334.477844,423.998291 
	C333.841766,423.998199 333.673187,423.997650 333.251678,423.995483 
z"/>
<path fill="#C2D7E2" opacity="1.000000" stroke="none" 
	d="
M426.839233,453.935120 
	C425.854645,455.972504 421.614960,456.070923 424.238464,460.087433 
	C422.514130,460.928131 420.742950,461.885773 418.948883,461.930603 
	C408.170197,462.200104 397.386230,462.260040 386.312439,462.685181 
	C384.876862,462.416016 383.732941,461.851807 382.289124,461.156616 
	C377.094330,458.558228 372.199402,456.090912 367.141296,453.321533 
	C385.393372,453.010681 403.808685,452.988495 422.223877,453.018768 
	C423.675690,453.021149 425.126953,453.388275 426.839233,453.935120 
z"/>
<path fill="#C2D7E2" opacity="1.000000" stroke="none" 
	d="
M312.288696,378.996521 
	C312.030975,377.924103 312.023163,376.853088 312.023895,375.379639 
	C336.635895,374.983612 361.239349,374.989349 385.842804,374.998108 
	C387.172424,374.998566 388.547821,374.824280 389.814636,375.113525 
	C390.581573,375.288666 391.180328,376.200439 391.854614,376.781281 
	C391.160309,377.509186 390.581787,378.621704 389.744263,378.873871 
	C388.521362,379.242065 387.112366,379.003998 385.782715,379.004181 
	C361.844208,379.007172 337.905670,379.007141 313.502747,379.008484 
	C313.038330,379.009186 312.538605,378.997925 312.288696,378.996521 
z"/>
<path fill="#C2D7E2" opacity="1.000000" stroke="none" 
	d="
M428.212372,461.156006 
	C431.898102,457.883728 435.857117,454.940186 440.106049,451.871826 
	C442.356628,452.879913 445.086456,452.769928 445.131104,456.406769 
	C445.181335,460.500793 444.403046,462.645081 439.747406,462.059662 
	C436.028198,461.591949 432.242065,461.656494 428.212372,461.156006 
z"/>
</svg>