<svg version="1.1" id="Layer_1" xmlns="http://www.w3.org/2000/svg" xmlns:xlink="http://www.w3.org/1999/xlink" x="0px" y="0px"
	 width="100%" viewBox="0 0 576 576" enable-background="new 0 0 576 576" xml:space="preserve">
<path fill="#FFFFFF" opacity="1.000000" stroke="none" 
	d="
M577.000000,200.000000 
	C577.000000,326.000000 577.000000,451.500000 577.000000,577.000000 
	C385.000000,577.000000 193.000000,577.000000 1.000000,577.000000 
	C1.000000,385.000000 1.000000,193.000000 1.000000,1.000000 
	C193.000000,1.000000 385.000000,1.000000 577.000000,1.000000 
	C577.000000,67.166664 577.000000,133.333328 577.000000,200.000000 
M523.957397,186.246109 
	C523.765564,185.201981 523.573669,184.157837 523.589355,182.385818 
	C520.815552,171.213043 516.471619,161.109970 505.036438,155.028183 
	C493.127808,148.046036 481.253357,141.004807 469.304199,134.092682 
	C431.563049,112.260902 393.792175,90.480515 356.036224,68.674332 
	C324.190521,50.281639 292.358429,31.865318 260.492737,13.507322 
	C257.336243,11.688852 254.113831,9.827414 250.689682,8.678295 
	C247.690063,7.671639 244.268829,7.302162 241.543564,11.012086 
	C240.358322,11.665575 239.173096,12.319065 237.276840,13.067412 
	C232.962936,15.483533 232.516754,19.742825 232.038116,24.665899 
	C232.040421,25.109983 232.042740,25.554068 232.010803,26.935223 
	C232.006592,92.544136 231.950989,158.153168 232.110336,223.761688 
	C232.121323,228.279236 233.162247,233.008224 234.752533,237.253677 
	C236.730682,242.534637 239.779099,247.414719 242.368744,252.474640 
	C242.117264,252.593719 241.808411,252.875595 241.533783,252.845490 
	C240.559860,252.738647 239.573364,252.609619 238.634598,252.339645 
	C226.077423,248.728226 214.156067,249.935745 202.276642,257.064636 
	C196.363449,260.369354 190.402542,263.591949 184.546127,266.994415 
	C168.074783,276.563965 151.683273,286.271301 135.188751,295.800415 
	C123.339249,302.646088 111.359863,309.266541 99.466270,316.036346 
	C89.392975,321.769989 79.276085,327.434448 69.336243,333.392670 
	C61.980625,337.801849 53.432266,340.886993 48.500557,348.315033 
	C46.522739,351.293976 46.733925,355.726227 45.876247,360.498260 
	C45.250099,367.815613 46.106415,373.971161 53.635098,378.263214 
	C97.031609,403.003418 140.227463,428.095490 183.498123,453.056549 
	C225.039261,477.019836 266.751556,500.692688 308.055023,525.058716 
	C324.806946,534.941101 340.768768,534.577332 357.112488,525.177734 
	C398.831451,501.184387 440.572266,477.228088 482.185883,453.053040 
	C491.785889,447.475983 500.911072,441.081665 510.886108,434.933624 
	C511.121033,434.407349 511.355927,433.881042 511.630249,432.742554 
	C512.038513,431.813110 512.446838,430.883698 513.520569,429.453522 
	C514.922424,420.887543 513.905396,412.824951 507.878845,405.493744 
	C514.736816,404.446228 521.206238,403.677277 523.098328,395.308685 
	C523.196289,394.503082 523.294312,393.697479 523.725891,392.206848 
	C523.760803,391.452942 523.795654,390.699005 524.275146,389.279022 
	C524.340027,388.284210 524.461548,387.289429 524.461792,386.294617 
	C524.478271,321.160095 524.488647,256.025543 524.465515,190.891037 
	C524.465088,189.608490 524.062195,188.326065 523.957397,186.246109 
z"/>
<path fill="#D4EAFC" opacity="1.000000" stroke="none" 
	d="
M232.045059,25.998152 
	C232.042740,25.554068 232.040421,25.109983 232.403656,24.261333 
	C234.508759,20.228697 236.248306,16.600626 237.987854,12.972555 
	C239.173096,12.319065 240.358322,11.665575 242.263916,10.995077 
	C247.687241,12.937551 252.390244,14.897032 256.862000,17.150623 
	C254.274384,17.444735 251.917969,17.444735 249.529755,17.444735 
	C251.003174,23.204971 253.645020,24.891045 259.420807,24.513220 
	C260.538269,22.656075 261.363800,21.284122 262.531006,19.968187 
	C279.024689,29.295147 295.195526,38.533356 311.324219,47.844681 
	C335.669586,61.899651 359.985352,76.006004 384.314087,90.089790 
	C410.800507,105.422615 437.262756,120.797417 463.784668,136.068634 
	C476.745270,143.531311 489.817291,150.800476 503.042786,158.422195 
	C514.572083,167.419724 519.969238,179.072998 519.978149,193.236328 
	C520.019165,258.282349 520.011414,323.328369 519.973572,388.374390 
	C519.971741,391.541382 519.519226,394.708099 519.236145,398.401672 
	C520.892090,397.301666 521.924194,396.616089 522.956238,395.930511 
	C521.206238,403.677277 514.736816,404.446228 507.878845,405.493744 
	C513.905396,412.824951 514.922424,420.887543 513.123840,429.264526 
	C512.727112,426.163666 512.727112,423.251740 512.727112,420.873108 
	C507.570465,424.447418 502.926544,428.127777 497.864746,431.095367 
	C475.597046,444.150330 453.215027,457.010437 430.862457,469.920410 
	C405.773163,484.411072 380.765594,499.046936 355.536102,513.289551 
	C342.196503,520.820007 327.781372,522.967346 313.997589,515.343567 
	C284.710419,499.145111 255.864914,482.146484 226.875412,465.411682 
	C191.545074,445.016602 156.186462,424.669037 120.966492,404.084656 
	C95.852623,389.406830 70.947205,374.372345 45.948761,359.497009 
	C46.733925,355.726227 46.522739,351.293976 48.500557,348.315033 
	C53.432266,340.886993 61.980625,337.801849 69.336243,333.392670 
	C79.276085,327.434448 89.392975,321.769989 99.466270,316.036346 
	C111.359863,309.266541 123.339249,302.646088 135.188751,295.800415 
	C151.683273,286.271301 168.074783,276.563965 184.546127,266.994415 
	C190.402542,263.591949 196.363449,260.369354 202.862823,257.283081 
	C206.000885,257.034698 208.640106,256.840302 211.089951,256.055084 
	C223.450104,252.093521 235.328171,250.725357 245.721115,260.965210 
	C246.427002,261.660706 248.750275,261.382751 249.947586,260.795471 
	C255.090790,258.272858 254.729675,253.649948 254.352112,249.047943 
	C261.761292,253.190002 268.821442,257.280426 275.888184,261.359436 
	C335.020203,295.490906 394.153137,329.620819 453.286560,363.749908 
	C469.583740,373.155914 485.875153,382.571930 502.191193,391.945068 
	C504.600403,393.329102 507.253174,395.329437 509.006622,390.518951 
	C509.117065,324.040314 509.126801,258.019592 509.126770,191.998840 
	C509.126770,191.006226 509.005463,190.013596 509.009888,188.617798 
	C508.117432,177.990738 503.334991,170.394485 494.038025,165.642288 
	C489.007324,163.070831 484.203461,160.054688 479.305267,157.225311 
	C427.153992,127.100868 374.997681,96.985161 322.857086,66.842293 
	C297.225311,52.024380 271.623444,37.154758 245.924362,22.074387 
	C244.923065,22.084526 244.005432,22.328823 242.792221,22.900904 
	C242.258759,26.487631 242.020859,29.746574 241.532516,33.333046 
	C241.188751,35.647831 241.014694,37.635052 241.013855,39.622349 
	C240.987686,101.082268 240.978500,162.542191 240.572754,223.907410 
	C239.785873,221.804962 239.051682,219.797546 239.049622,217.789398 
	C238.988495,158.290131 238.958572,98.790695 239.064545,39.291553 
	C239.075058,33.388935 236.167679,29.485247 232.045059,25.998152 
M430.186310,407.188751 
	C426.003723,405.598846 421.821106,404.008942 417.638489,402.419037 
	C417.402191,402.879028 417.165924,403.339020 416.929626,403.799011 
	C420.295105,405.531311 423.660614,407.263580 427.554993,409.530701 
	C433.545227,410.332275 441.107574,406.622437 442.151520,402.295105 
	C438.392548,404.001587 434.681854,405.686157 430.186310,407.188751 
M240.913773,361.522339 
	C240.712296,361.559753 240.510834,361.597168 240.309357,361.634583 
	C240.446991,361.842865 240.584625,362.051178 240.880905,362.935883 
	C248.690170,370.399719 255.702805,371.305420 264.476227,361.171722 
	C261.773376,362.408295 260.224304,362.833435 259.015076,363.721436 
	C254.745514,366.856689 250.511383,366.740326 246.082977,364.120636 
	C244.532318,363.203308 242.813980,362.569427 240.913773,361.522339 
M251.158264,333.962250 
	C243.216492,340.172607 235.318985,339.245331 227.188538,333.508209 
	C229.513489,336.165192 232.014648,337.878540 234.679657,339.280487 
	C240.635529,342.413544 248.186371,340.140045 252.451569,333.941864 
	C252.256470,333.910339 252.061356,333.878784 251.158264,333.962250 
M255.119034,392.405426 
	C266.798035,399.097107 278.479614,405.784271 290.155334,412.481659 
	C301.831940,419.179565 313.434845,426.009949 325.205658,432.537781 
	C330.765045,435.620819 339.486664,432.077026 341.621674,425.121948 
	C332.512146,434.171173 324.592651,430.657898 316.316498,425.254120 
	C308.257660,419.992218 299.689270,415.511505 291.351288,410.676208 
	C267.201691,396.671753 243.064407,382.646057 218.900574,368.666229 
	C213.880295,365.761780 208.766434,363.019165 203.695694,360.201996 
	C203.370560,360.774384 203.045441,361.346771 202.720306,361.919159 
	C219.991623,371.936218 237.262939,381.953247 255.119034,392.405426 
M160.164413,317.394714 
	C170.118454,323.047058 180.085495,328.676697 190.021362,334.360840 
	C195.396774,337.435974 205.112915,334.089600 207.191360,328.081848 
	C205.649063,328.820892 204.185425,329.256104 203.040985,330.116089 
	C197.678818,334.145630 192.698837,333.767639 187.013962,330.212616 
	C176.840118,323.850342 166.264465,318.130646 155.856781,312.142334 
	C155.592468,312.516876 155.328140,312.891449 155.063812,313.266022 
	C156.570312,314.500244 158.076828,315.734467 160.164413,317.394714 
M213.823700,313.562378 
	C214.102539,312.932587 214.381393,312.302795 214.660248,311.673004 
	C214.540665,311.201050 214.421082,310.729095 214.301498,310.257141 
	C204.848999,320.509430 196.524475,315.848907 187.978226,309.819305 
	C183.615784,306.741486 178.632263,304.544037 173.929474,301.948639 
	C173.777588,303.374817 174.147278,304.078064 174.729370,304.427155 
	C182.563110,309.124908 190.253647,314.116180 198.391815,318.216766 
	C200.713791,319.386749 204.458435,318.324402 207.359131,317.559387 
	C209.509827,316.992157 211.350632,315.250000 213.823700,313.562378 
M428.291351,441.939209 
	C423.322571,445.734741 418.921356,443.299255 414.525818,440.696838 
	C409.628845,437.797546 404.721802,434.915344 398.622894,431.320679 
	C399.423340,433.274811 399.488281,434.074921 399.884949,434.306213 
	C406.601166,438.222504 413.156738,442.501495 420.180054,445.772308 
	C424.634552,447.846771 432.464050,443.704681 434.646637,438.669037 
	C432.404053,439.819885 430.683868,440.702606 428.291351,441.939209 
M449.759155,422.832672 
	C458.220581,427.456818 465.886414,426.120850 470.278290,417.902954 
	C464.117584,421.455261 459.005371,425.355774 452.843079,421.944397 
	C447.744934,419.122131 442.716858,416.173340 437.657745,413.280609 
	C437.336853,413.780853 437.015991,414.281128 436.695099,414.781372 
	C440.838501,417.333221 444.981903,419.885040 449.759155,422.832672 
M223.645645,298.382721 
	C221.944092,298.671875 219.938339,298.482727 218.595932,299.336548 
	C213.877762,302.337402 209.683578,302.638672 204.858551,299.185669 
	C200.835739,296.306824 196.106461,294.415070 191.690079,292.086151 
	C201.881927,304.243896 211.959656,306.214752 223.645645,298.382721 
M420.607117,392.278931 
	C413.073822,399.043793 405.815887,395.644501 398.415375,391.412811 
	C401.634735,395.971680 405.996094,398.740173 411.025269,398.779266 
	C416.086426,398.818573 420.385254,395.940552 423.313293,391.267334 
	C422.617432,391.499390 421.921600,391.731445 420.607117,392.278931 
M362.129913,369.730865 
	C361.753510,370.237122 361.377106,370.743378 361.000702,371.249664 
	C364.477478,373.130463 367.769226,375.629242 371.476807,376.739258 
	C376.367462,378.203461 383.989075,373.626343 385.228760,368.721832 
	C377.766052,374.871307 370.343506,376.088715 362.129913,369.730865 
M234.966309,278.521027 
	C237.876755,280.125427 240.698746,281.926544 243.719803,283.284973 
	C247.589111,285.024811 249.894043,284.203522 251.680954,280.925049 
	C241.188538,283.508423 235.075089,274.006714 226.439423,271.474640 
	C226.193726,271.866730 225.948044,272.258820 225.702347,272.650879 
	C228.580002,274.481415 231.457642,276.311981 234.966309,278.521027 
M373.473816,417.973999 
	C378.262512,416.790588 382.667999,415.015991 386.470093,410.078766 
	C381.180206,412.052032 377.081787,414.792511 373.005219,414.760315 
	C368.937256,414.728271 364.891205,411.918335 360.835510,410.326233 
	C360.598602,410.827637 360.361664,411.329041 360.124725,411.830444 
	C364.311432,413.873779 368.498138,415.917114 373.473816,417.973999 
M394.173950,449.630402 
	C390.747742,449.394318 392.574738,451.258698 393.538513,451.772400 
	C397.012146,453.623779 400.524017,455.614319 404.269440,456.683716 
	C407.807007,457.693787 414.864532,453.112946 417.071747,448.116882 
	C409.291870,454.599182 402.106262,455.880981 394.173950,449.630402 
M217.444138,329.531464 
	C224.383011,330.649017 231.542786,327.456085 233.761581,320.972412 
	C225.073563,329.578491 216.833496,328.626007 208.538803,321.379120 
	C208.362396,322.079803 208.185989,322.780518 208.009598,323.481201 
	C210.930115,325.359619 213.850647,327.238037 217.444138,329.531464 
M248.103287,303.773987 
	C247.827576,304.406708 247.231995,305.541534 247.322586,305.599274 
	C250.110641,307.375427 252.801376,309.480469 255.848129,310.634399 
	C260.813995,312.515167 269.652557,308.141479 271.499359,302.488525 
	C263.811462,308.976105 256.349487,310.625244 248.103287,303.773987 
M325.451385,389.232788 
	C324.524109,388.963074 323.596832,388.693390 321.736938,388.152405 
	C331.773285,398.125885 342.370819,397.970154 348.194580,387.076996 
	C340.471649,392.844849 333.492554,395.852325 325.451385,389.232788 
M355.386993,448.728485 
	C359.660492,451.110748 363.701965,454.311707 368.282654,455.610199 
	C371.798615,456.606903 378.053375,451.652802 379.387451,448.573700 
	C379.246216,448.512238 379.095276,448.383728 378.965698,448.402557 
	C378.648834,448.448669 378.277039,448.478943 378.040283,448.661804 
	C371.526367,453.693573 364.942566,454.619568 358.156097,449.145508 
	C357.557007,448.662292 356.644653,448.567383 355.386993,448.728485 
M312.956421,354.562012 
	C306.101501,360.295593 300.808838,353.139099 294.351746,351.835754 
	C301.620728,361.453674 314.585297,361.053101 319.534119,351.078033 
	C317.289276,352.259308 315.446320,353.229156 312.956421,354.562012 
M386.917572,383.947357 
	C384.549652,382.680481 382.181732,381.413605 379.813812,380.146698 
	C387.893768,390.071777 396.281494,390.313538 402.600433,382.564575 
	C398.262909,383.063049 392.950470,383.673553 386.917572,383.947357 
M349.320099,444.899536 
	C356.066010,442.906036 359.096436,440.846161 360.727905,436.062164 
	C352.440948,444.165375 344.466125,442.879608 336.384430,436.538818 
	C336.220398,437.396912 336.056366,438.254974 335.892334,439.113037 
	C340.106873,441.049774 344.321411,442.986511 349.320099,444.899536 
M351.190247,365.793030 
	C357.615112,366.157593 364.331329,362.956573 366.192352,358.761444 
	C362.124084,360.410400 357.943085,363.432281 353.774536,363.415222 
	C349.740265,363.398743 345.718750,360.254883 341.691650,358.484650 
	C341.485321,358.861450 341.278992,359.238281 341.072693,359.615082 
	C344.198120,361.579437 347.323547,363.543793 351.190247,365.793030 
M295.571686,345.195221 
	C297.022675,344.152740 298.473663,343.110291 299.924652,342.067810 
	C299.751709,341.314575 299.578735,340.561340 299.405762,339.808105 
	C291.231964,348.453583 283.336243,345.860138 275.515717,340.225861 
	C279.792084,347.954865 287.882568,349.948303 295.571686,345.195221 
M320.420776,394.307526 
	C312.847717,400.120392 305.187805,400.696869 297.404694,393.843719 
	C299.587250,398.407257 307.017090,402.564453 310.613251,401.443848 
	C314.712524,400.166412 319.295532,399.180786 320.420776,394.307526 
M421.375336,422.686890 
	C417.081604,420.986603 412.787872,419.286285 408.096924,417.428711 
	C415.460815,426.942413 429.003448,426.780853 433.281982,417.420898 
	C429.498322,419.135193 425.797668,420.811890 421.375336,422.686890 
M325.800934,378.527374 
	C318.200348,385.105225 310.848022,381.808960 303.529297,377.177002 
	C311.533264,386.873657 322.491699,386.764648 328.951904,377.042236 
	C327.706421,377.565033 327.034271,377.847168 325.800934,378.527374 
M341.763214,400.220337 
	C350.977051,408.877747 361.457825,408.607758 366.772095,398.962280 
	C364.865448,399.960297 363.414398,400.590515 362.098175,401.431732 
	C357.036530,404.666718 352.077576,405.312256 346.882660,401.563263 
	C345.420319,400.507874 343.387695,400.242645 341.763214,400.220337 
M202.707153,352.563141 
	C195.851517,356.701019 190.258484,352.549469 184.334793,349.684113 
	C187.879944,353.522675 191.541626,357.208282 197.030670,356.861816 
	C201.897156,356.554657 205.479385,353.480713 208.848801,350.401276 
	C208.607559,349.984222 208.366333,349.567169 208.125092,349.150146 
	C206.527878,350.141235 204.930649,351.132355 202.707153,352.563141 
M166.093460,340.598389 
	C168.329544,341.999329 170.497833,343.525970 172.815338,344.776031 
	C178.256332,347.710876 187.843170,343.941956 189.127487,338.403168 
	C186.206314,339.938782 183.462982,341.931854 180.397095,342.863770 
	C175.769943,344.270325 171.713348,342.203430 167.959503,339.497925 
	C167.344345,339.054565 165.510696,336.415222 166.093460,340.598389 
M294.266693,332.603455 
	C300.229462,333.451355 307.469086,330.032410 309.181702,325.660492 
	C305.078400,327.377594 300.895447,330.480194 296.702576,330.493652 
	C292.691406,330.506531 288.669891,327.307922 284.652924,325.520874 
	C284.401398,325.999329 284.149872,326.477783 283.898376,326.956207 
	C287.113373,328.729950 290.328369,330.503662 294.266693,332.603455 
M443.676819,435.630005 
	C446.748047,433.844177 449.819275,432.058380 452.890503,430.272583 
	C452.704895,429.481445 452.519257,428.690308 452.333649,427.899170 
	C443.888702,435.908813 435.712158,434.540253 427.449249,428.603821 
	C431.811981,433.032013 436.274017,436.756958 443.676819,435.630005 
M221.153809,341.878815 
	C214.287460,346.951569 208.464157,342.338257 201.823990,338.937897 
	C208.200409,348.960602 221.121368,348.741394 226.542938,338.684021 
	C224.534973,339.885803 223.170029,340.702728 221.153809,341.878815 
M263.878876,350.617950 
	C266.615509,348.954712 269.352142,347.291473 272.088806,345.628235 
	C271.845886,344.871857 271.602966,344.115509 271.360046,343.359131 
	C263.146484,352.003510 254.827316,350.294098 246.461685,344.025574 
	C250.805328,350.390564 257.502380,352.857544 263.878876,350.617950 
M339.763184,351.506836 
	C332.902954,355.417725 328.287628,349.075195 322.431488,347.897614 
	C326.367523,351.465942 330.164673,355.539093 336.055603,354.861847 
	C340.774963,354.319336 344.334198,351.326416 347.738251,348.402740 
	C347.460938,347.955933 347.183655,347.509094 346.906372,347.062286 
	C344.731781,348.402557 342.557220,349.742798 339.763184,351.506836 
M336.580719,365.236755 
	C337.292236,364.479797 338.003754,363.722839 339.533722,362.095123 
	C333.962769,364.405182 329.758331,367.491852 325.542053,367.508057 
	C321.558960,367.523407 317.563446,364.311218 312.729614,362.139618 
	C319.417023,371.227722 326.097473,371.997070 336.580719,365.236755 
M391.999420,409.590881 
	C401.300964,415.390961 411.694916,413.900421 414.462036,405.174408 
	C405.977631,413.560638 397.780609,412.857025 389.489929,405.461487 
	C389.385315,406.012177 389.280701,406.562897 389.176086,407.113586 
	C389.918945,407.814789 390.661835,408.515961 391.999420,409.590881 
M346.945007,380.890076 
	C350.348083,379.106262 353.751160,377.322479 357.154236,375.538666 
	C356.891388,375.098083 356.628540,374.657532 356.365692,374.216949 
	C352.334839,375.766602 348.263000,378.621765 344.284790,378.496796 
	C340.347595,378.373108 336.504883,375.242126 332.620728,373.430267 
	C336.303680,377.606842 340.144348,381.393646 346.945007,380.890076 
M383.415039,400.913361 
	C379.133606,399.127686 374.852142,397.341980 370.570709,395.556274 
	C374.120972,399.508453 377.938324,403.435181 383.579529,402.853638 
	C388.381775,402.358612 392.233734,399.415527 395.065002,395.277435 
	C391.439789,397.141510 387.814606,399.005554 383.415039,400.913361 
M354.291840,427.757538 
	C363.027496,436.855255 370.138275,436.807129 379.134949,426.639130 
	C376.702301,427.786987 375.150635,428.257538 373.903809,429.152740 
	C368.431671,433.081421 363.129883,432.534637 357.807861,428.890167 
	C356.875580,428.251740 355.793030,427.832794 354.291840,427.757538 
M238.849808,309.546875 
	C231.489380,316.072266 225.010834,311.424408 218.492493,307.280884 
	C221.382523,312.463623 228.330994,316.232361 232.602875,314.810638 
	C236.466675,313.524780 240.832230,312.360413 242.381348,307.529175 
	C241.396637,308.063751 240.411942,308.598328 238.849808,309.546875 
M340.441681,421.155182 
	C347.866913,425.023010 354.797516,423.325104 359.299164,416.474731 
	C355.357391,418.008667 351.482391,420.693481 347.601166,420.702576 
	C343.557953,420.712036 339.508636,418.139954 335.462006,416.696594 
	C335.292694,416.897034 335.123352,417.097473 334.954041,417.297913 
	C336.565796,418.472778 338.177582,419.647644 340.441681,421.155182 
M337.250458,408.855438 
	C338.439606,408.005463 339.628723,407.155457 340.817841,406.305450 
	C336.237335,407.047302 332.205109,409.694794 328.147430,409.734528 
	C324.276917,409.772369 320.379791,407.092255 315.645813,405.282562 
	C323.207794,413.435730 327.685242,414.129303 337.250458,408.855438 
M273.605377,379.062408 
	C276.896240,377.403656 280.187103,375.744904 283.477966,374.086151 
	C283.241425,373.195496 283.004883,372.304810 282.768341,371.414124 
	C274.916840,378.937439 267.139679,378.043243 259.253754,372.473175 
	C262.873322,376.933167 266.862915,380.122101 273.605377,379.062408 
M268.786469,315.894989 
	C267.997681,315.763092 267.208893,315.631195 265.701843,315.379211 
	C275.597748,324.257629 282.098694,324.101013 289.525452,315.067871 
	C282.942474,318.801239 276.333771,321.792206 268.786469,315.894989 
M285.623962,389.324341 
	C293.190094,391.088837 300.068695,388.647888 302.836761,381.866425 
	C294.310577,389.276031 286.372406,389.694519 278.352844,382.282593 
	C278.175446,383.043732 277.998047,383.804901 277.820679,384.566071 
	C280.178040,386.041840 282.535431,387.517609 285.623962,389.324341 
M231.107117,357.517059 
	C236.774323,357.919647 242.908859,354.812653 245.067245,349.842773 
	C237.499664,356.790924 229.623215,356.309021 221.502960,349.962830 
	C221.369629,350.712341 221.236298,351.461853 221.102966,352.211365 
	C224.196350,353.888214 227.289719,355.565063 231.107117,357.517059 
M215.289169,287.489838 
	C220.378296,291.035248 227.439423,288.895935 232.487228,281.835052 
	C224.305267,288.936920 216.324432,287.759460 208.490829,280.521118 
	C208.318756,281.225342 208.146667,281.929565 207.974579,282.633789 
	C210.200317,284.107819 212.426071,285.581848 215.289169,287.489838 
M280.676788,330.657410 
	C280.244873,330.542755 279.612885,330.183105 279.409943,330.348816 
	C271.693878,336.650208 264.307983,335.060669 257.050262,329.511261 
	C257.000671,329.473358 256.790131,329.645935 256.654724,329.720215 
	C259.363007,335.327301 268.032867,338.795959 273.123169,336.121216 
	C275.732147,334.750305 278.109589,332.938812 280.676788,330.657410 
M229.817612,295.839233 
	C238.474747,302.200653 243.366013,302.042633 251.852310,293.364258 
	C247.534866,294.927704 243.446091,297.645538 239.457794,297.505280 
	C235.454727,297.364563 231.551834,294.375061 226.441162,292.120605 
	C227.881073,293.845154 228.555145,294.652466 229.817612,295.839233 
M377.491974,440.160156 
	C376.190491,439.540161 374.889008,438.920166 373.587494,438.300171 
	C380.487061,447.054932 389.750763,447.701019 398.204681,437.462585 
	C391.060059,440.619659 385.178253,446.182495 377.491974,440.160156 
M303.009766,369.661102 
	C298.604126,370.229950 294.198456,370.798828 290.752319,371.243805 
	C296.509186,375.824066 306.482605,373.875427 309.502991,365.830475 
	C307.232971,367.162476 305.437134,368.216217 303.009766,369.661102 
M355.511597,348.176727 
	C361.424500,351.051941 363.514313,350.796661 365.113434,347.968781 
	C359.663574,346.249725 354.038116,344.475311 348.412659,342.700867 
	C348.282990,342.925415 348.153351,343.149994 348.023682,343.374542 
	C350.291443,344.864960 352.559174,346.355377 355.511597,348.176727 
M480.591705,413.494598 
	C480.028900,413.197479 479.496094,412.743103 478.898376,412.629211 
	C475.450317,411.972260 471.939423,411.581848 468.548492,410.714966 
	C466.805054,410.269318 465.266327,409.022949 463.635101,408.138397 
	C463.359894,408.612732 463.084686,409.087067 462.809479,409.561401 
	C465.888855,411.483032 468.764221,414.057922 472.116730,415.105042 
	C474.498749,415.849060 477.524292,414.532867 480.591705,413.494598 
M339.916107,336.024261 
	C336.516296,334.393280 333.116516,332.762268 329.716705,331.131287 
	C335.299011,339.195740 344.155579,341.287720 346.465057,336.091339 
	C344.612579,336.091339 342.669006,336.091339 339.916107,336.024261 
M376.590637,357.333130 
	C373.658142,355.848419 370.725647,354.363708 366.573853,352.261688 
	C371.439117,359.789337 380.807343,362.502380 384.685944,358.285736 
	C382.091125,358.075500 379.705353,357.882202 376.590637,357.333130 
M450.051575,402.587067 
	C456.228394,406.004395 458.288330,405.881348 460.101654,403.005249 
	C454.771912,401.251678 449.212463,399.422546 443.653046,397.593384 
	C443.533539,397.826508 443.414032,398.059601 443.294495,398.292694 
	C445.334442,399.592529 447.374390,400.892365 450.051575,402.587067 
M430.011963,388.632263 
	C428.290924,387.756012 426.569916,386.879761 424.848877,386.003510 
	C431.505585,394.234741 438.174347,396.010040 440.699799,391.799866 
	C437.471497,390.923370 434.059052,389.996887 430.011963,388.632263 
M398.257843,426.882019 
	C400.530457,425.397949 402.803070,423.913910 405.075684,422.429840 
	C404.863220,422.149872 404.650757,421.869904 404.438293,421.589935 
	C399.286804,423.413422 394.135315,425.236877 389.090485,427.022614 
	C391.218658,430.507080 394.388489,428.895905 398.257843,426.882019 
M147.379761,330.132172 
	C149.961777,331.489502 152.543808,332.846802 155.125824,334.204102 
	C155.411652,333.638947 155.697464,333.073761 155.983276,332.508606 
	C150.292816,329.300690 144.602356,326.092743 138.911896,322.884796 
	C138.623993,323.377441 138.336090,323.870087 138.048187,324.362732 
	C140.937271,326.178894 143.826355,327.995087 147.379761,330.132172 
M252.532425,323.346130 
	C249.906952,323.614532 247.281464,323.882935 244.354248,324.182190 
	C250.671249,327.637573 256.481354,325.976410 261.203827,318.889221 
	C258.562347,320.289764 255.920853,321.690338 252.532425,323.346130 
M270.685394,32.527756 
	C271.024658,31.979750 271.363922,31.431742 271.703186,30.883739 
	C271.428467,30.748648 271.153778,30.613558 270.879059,30.478464 
	C270.673706,31.015120 270.468353,31.551777 270.685394,32.527756 
M518.445496,399.424866 
	C518.445496,399.424866 518.549683,399.349213 518.445496,399.424866 
z"/>
<path fill="#4276A6" opacity="1.000000" stroke="none" 
	d="
M45.912506,359.997620 
	C70.947205,374.372345 95.852623,389.406830 120.966492,404.084656 
	C156.186462,424.669037 191.545074,445.016602 226.875412,465.411682 
	C255.864914,482.146484 284.710419,499.145111 313.997589,515.343567 
	C327.781372,522.967346 342.196503,520.820007 355.536102,513.289551 
	C380.765594,499.046936 405.773163,484.411072 430.862457,469.920410 
	C453.215027,457.010437 475.597046,444.150330 497.864746,431.095367 
	C502.926544,428.127777 507.570465,424.447418 512.727112,420.873108 
	C512.727112,423.251740 512.727112,426.163666 512.791138,429.514893 
	C512.446838,430.883698 512.038513,431.813110 511.369202,433.197937 
	C510.823700,434.123383 510.539246,434.593414 510.254761,435.063416 
	C500.911072,441.081665 491.785889,447.475983 482.185883,453.053040 
	C440.572266,477.228088 398.831451,501.184387 357.112488,525.177734 
	C340.768768,534.577332 324.806946,534.941101 308.055023,525.058716 
	C266.751556,500.692688 225.039261,477.019836 183.498123,453.056549 
	C140.227463,428.095490 97.031609,403.003418 53.635098,378.263214 
	C46.106415,373.971161 45.250099,367.815613 45.912506,359.997620 
z"/>
<path fill="#D7EAFA" opacity="1.000000" stroke="none" 
	d="
M232.027924,26.466686 
	C236.167679,29.485247 239.075058,33.388935 239.064545,39.291553 
	C238.958572,98.790695 238.988495,158.290131 239.049622,217.789398 
	C239.051682,219.797546 239.785873,221.804962 240.663239,224.113678 
	C241.297318,224.690811 241.518707,224.885345 241.901855,225.418335 
	C241.942947,235.659500 246.933334,242.865570 254.006165,248.990997 
	C254.729675,253.649948 255.090790,258.272858 249.947586,260.795471 
	C248.750275,261.382751 246.427002,261.660706 245.721115,260.965210 
	C235.328171,250.725357 223.450104,252.093521 211.089951,256.055084 
	C208.640106,256.840302 206.000885,257.034698 203.218964,257.239136 
	C214.156067,249.935745 226.077423,248.728226 238.634598,252.339645 
	C239.573364,252.609619 240.559860,252.738647 241.533783,252.845490 
	C241.808411,252.875595 242.117264,252.593719 242.368744,252.474640 
	C239.779099,247.414719 236.730682,242.534637 234.752533,237.253677 
	C233.162247,233.008224 232.121323,228.279236 232.110336,223.761688 
	C231.950989,158.153168 232.006592,92.544136 232.027924,26.466686 
z"/>
<path fill="#73A5D3" opacity="1.000000" stroke="none" 
	d="
M257.093231,16.856514 
	C252.390244,14.897032 247.687241,12.937551 242.613815,10.964680 
	C244.268829,7.302162 247.690063,7.671639 250.689682,8.678295 
	C254.113831,9.827414 257.336243,11.688852 260.492737,13.507322 
	C292.358429,31.865318 324.190521,50.281639 356.036224,68.674332 
	C393.792175,90.480515 431.563049,112.260902 469.304199,134.092682 
	C481.253357,141.004807 493.127808,148.046036 504.892151,155.530930 
	C504.111511,156.741531 503.475220,157.449371 502.838898,158.157227 
	C489.817291,150.800476 476.745270,143.531311 463.784668,136.068634 
	C437.262756,120.797417 410.800507,105.422615 384.314087,90.089790 
	C359.985352,76.006004 335.669586,61.899651 311.324219,47.844681 
	C295.195526,38.533356 279.024689,29.295147 262.332733,19.694298 
	C260.226257,18.528435 258.659729,17.692476 257.093231,16.856514 
z"/>
<path fill="#5181AF" opacity="1.000000" stroke="none" 
	d="
M503.042786,158.422195 
	C503.475220,157.449371 504.111511,156.741531 505.051178,155.827621 
	C516.471619,161.109970 520.815552,171.213043 523.147644,182.889038 
	C522.459290,184.644775 521.997437,185.897186 521.996887,187.149841 
	C521.964661,254.295364 521.962402,321.440887 522.033081,388.586365 
	C522.034546,390.022003 522.919434,391.456726 523.392273,392.891876 
	C523.294312,393.697479 523.196289,394.503082 523.027283,395.619598 
	C521.924194,396.616089 520.892090,397.301666 519.236145,398.401672 
	C519.519226,394.708099 519.971741,391.541382 519.973572,388.374390 
	C520.011414,323.328369 520.019165,258.282349 519.978149,193.236328 
	C519.969238,179.072998 514.572083,167.419724 503.042786,158.422195 
z"/>
<path fill="#5181AF" opacity="1.000000" stroke="none" 
	d="
M523.847046,187.043579 
	C524.062195,188.326065 524.465088,189.608490 524.465515,190.891037 
	C524.488647,256.025543 524.478271,321.160095 524.461792,386.294617 
	C524.461548,387.289429 524.340027,388.284210 523.780151,389.305420 
	C523.188293,388.346619 523.006836,387.361450 523.006653,386.376190 
	C522.992615,321.344757 522.987671,256.313324 523.028076,191.281891 
	C523.028931,189.868958 523.562195,188.456345 523.847046,187.043579 
z"/>
<path fill="#356595" opacity="1.000000" stroke="none" 
	d="
M523.902222,186.644836 
	C523.562195,188.456345 523.028931,189.868958 523.028076,191.281891 
	C522.987671,256.313324 522.992615,321.344757 523.006653,386.376190 
	C523.006836,387.361450 523.188293,388.346619 523.557861,389.638489 
	C523.795654,390.699005 523.760803,391.452942 523.559082,392.549377 
	C522.919434,391.456726 522.034546,390.022003 522.033081,388.586365 
	C521.962402,321.440887 521.964661,254.295364 521.996887,187.149841 
	C521.997437,185.897186 522.459290,184.644775 523.043823,183.252960 
	C523.573669,184.157837 523.765564,185.201981 523.902222,186.644836 
z"/>
<path fill="#D7EAFA" opacity="1.000000" stroke="none" 
	d="
M237.632355,13.019983 
	C236.248306,16.600626 234.508759,20.228697 232.417984,23.928530 
	C232.516754,19.742825 232.962936,15.483533 237.632355,13.019983 
z"/>
<path fill="#D4EAFC" opacity="1.000000" stroke="none" 
	d="
M510.570435,434.998535 
	C510.539246,434.593414 510.823700,434.123383 511.349487,433.504059 
	C511.355927,433.881042 511.121033,434.407349 510.570435,434.998535 
z"/>
<path fill="#12346B" opacity="1.000000" stroke="none" 
	d="
M254.352112,249.047943 
	C246.933334,242.865570 241.942947,235.659500 241.989044,224.957642 
	C241.996124,161.543594 242.007309,99.010353 242.006256,36.477112 
	C242.006226,35.319916 241.860626,34.162720 241.782959,33.005520 
	C242.020859,29.746574 242.258759,26.487631 243.159271,22.884617 
	C244.550613,22.463215 245.279312,22.385880 246.008026,22.308546 
	C271.623444,37.154758 297.225311,52.024380 322.857086,66.842293 
	C374.997681,96.985161 427.153992,127.100868 479.305267,157.225311 
	C484.203461,160.054688 489.007324,163.070831 494.038025,165.642288 
	C503.334991,170.394485 508.117432,177.990738 508.718140,188.913666 
	C508.238861,190.593643 508.016998,191.574524 508.016754,192.555481 
	C508.000977,257.288757 507.997406,322.022064 508.041290,386.755310 
	C508.042236,388.162689 508.604614,389.569672 508.905060,390.976837 
	C507.253174,395.329437 504.600403,393.329102 502.191193,391.945068 
	C485.875153,382.571930 469.583740,373.155914 453.286560,363.749908 
	C394.153137,329.620819 335.020203,295.490906 275.888184,261.359436 
	C268.821442,257.280426 261.761292,253.190002 254.352112,249.047943 
M402.139252,171.608246 
	C389.289734,193.111465 376.440186,214.614670 363.050201,237.022293 
	C361.646454,234.189514 360.610474,232.360733 359.806671,230.435028 
	C353.844086,216.150269 347.959930,201.832626 341.945831,187.569733 
	C341.356018,186.170914 340.251587,184.249237 339.055084,183.965393 
	C330.879913,182.025848 322.616241,180.459488 314.381073,178.772797 
	C314.011780,179.173553 313.642456,179.574310 313.273132,179.975067 
	C327.538666,212.970551 341.804199,245.966049 356.388458,279.698730 
	C386.119629,248.557373 415.241516,218.054214 444.303955,187.613297 
	C443.812775,186.715424 443.676483,186.174484 443.330750,185.876785 
	C433.243988,177.191513 423.182434,168.474915 412.936157,159.981247 
	C412.193329,159.365494 409.381439,159.881348 408.734985,160.758270 
	C406.376892,163.957047 404.529480,167.532303 402.139252,171.608246 
M342.504242,127.146118 
	C334.489807,123.658981 326.475372,120.171852 318.181000,116.562920 
	C318.072968,117.752899 317.829834,119.014565 317.864746,120.268471 
	C318.174957,131.407288 318.746735,142.544006 318.785858,153.682922 
	C318.804260,158.922607 321.275208,159.345932 325.224640,158.603745 
	C325.224640,148.250946 325.224640,138.237503 325.224640,127.723022 
	C326.717773,128.314819 327.771179,128.703140 328.801544,129.145157 
	C342.136230,134.865509 355.837799,138.867447 370.454224,135.720642 
	C374.697510,134.807098 376.581421,136.095596 378.938568,139.223160 
	C384.895813,147.127380 391.310333,154.686981 397.738251,162.627548 
	C399.953491,160.710724 401.390442,159.467377 402.423767,158.573242 
	C394.774231,148.645050 387.586884,139.111359 380.088959,129.828506 
	C379.079224,128.578384 376.267242,127.725670 374.695007,128.159027 
	C364.089417,131.082306 353.666626,130.821747 342.504242,127.146118 
M418.987305,260.328308 
	C414.003693,268.335358 406.911774,273.949341 398.652832,278.236511 
	C390.146667,282.652008 381.638489,287.063507 372.991577,291.549133 
	C375.121338,295.915466 377.625214,296.804321 381.600403,294.590302 
	C388.569214,290.708893 396.036133,287.647644 402.718658,283.348053 
	C408.931427,279.350739 415.072327,274.810150 420.040314,269.402191 
	C429.552063,259.047974 432.261719,245.695312 433.936707,232.198074 
	C434.547821,227.273529 434.744537,222.297546 435.192230,216.550446 
	C429.886810,219.531189 428.208221,222.744400 427.807587,227.649536 
	C426.900879,238.750565 424.893188,249.732620 418.987305,260.328308 
z"/>
<path fill="#8DB5D4" opacity="1.000000" stroke="none" 
	d="
M254.826645,392.187866 
	C237.262939,381.953247 219.991623,371.936218 202.720306,361.919159 
	C203.045441,361.346771 203.370560,360.774384 203.695694,360.201996 
	C208.766434,363.019165 213.880295,365.761780 218.900574,368.666229 
	C243.064407,382.646057 267.201691,396.671753 291.351288,410.676208 
	C299.689270,415.511505 308.257660,419.992218 316.316498,425.254120 
	C324.592651,430.657898 332.512146,434.171173 341.621674,425.121948 
	C339.486664,432.077026 330.765045,435.620819 325.205658,432.537781 
	C313.434845,426.009949 301.831940,419.179565 290.155334,412.481659 
	C278.479614,405.784271 266.798035,399.097107 254.826645,392.187866 
z"/>
<path fill="#031346" opacity="1.000000" stroke="none" 
	d="
M509.006622,390.518951 
	C508.604614,389.569672 508.042236,388.162689 508.041290,386.755310 
	C507.997406,322.022064 508.000977,257.288757 508.016754,192.555481 
	C508.016998,191.574524 508.238861,190.593643 508.649017,189.316849 
	C509.005463,190.013596 509.126770,191.006226 509.126770,191.998840 
	C509.126801,258.019592 509.117065,324.040314 509.006622,390.518951 
z"/>
<path fill="#B1D0EC" opacity="1.000000" stroke="none" 
	d="
M241.532501,33.333046 
	C241.860626,34.162720 242.006226,35.319916 242.006256,36.477112 
	C242.007309,99.010353 241.996124,161.543594 241.899017,224.537537 
	C241.518707,224.885345 241.297318,224.690811 241.057175,224.208374 
	C240.978500,162.542191 240.987686,101.082268 241.013855,39.622349 
	C241.014694,37.635052 241.188751,35.647831 241.532501,33.333046 
z"/>
<path fill="#90B6D3" opacity="1.000000" stroke="none" 
	d="
M159.873871,317.181702 
	C158.076828,315.734467 156.570312,314.500244 155.063812,313.266022 
	C155.328140,312.891449 155.592468,312.516876 155.856781,312.142334 
	C166.264465,318.130646 176.840118,323.850342 187.013962,330.212616 
	C192.698837,333.767639 197.678818,334.145630 203.040985,330.116089 
	C204.185425,329.256104 205.649063,328.820892 207.191360,328.081848 
	C205.112915,334.089600 195.396774,337.435974 190.021362,334.360840 
	C180.085495,328.676697 170.118454,323.047058 159.873871,317.181702 
z"/>
<path fill="#8CB4D3" opacity="1.000000" stroke="none" 
	d="
M213.576599,313.796814 
	C211.350632,315.250000 209.509827,316.992157 207.359131,317.559387 
	C204.458435,318.324402 200.713791,319.386749 198.391815,318.216766 
	C190.253647,314.116180 182.563110,309.124908 174.729370,304.427155 
	C174.147278,304.078064 173.777588,303.374817 173.929474,301.948639 
	C178.632263,304.544037 183.615784,306.741486 187.978226,309.819305 
	C196.524475,315.848907 204.848999,320.509430 214.301498,310.257141 
	C214.421082,310.729095 214.540665,311.201050 214.660248,311.673004 
	C214.381393,312.302795 214.102539,312.932587 213.576599,313.796814 
z"/>
<path fill="#8EB7D7" opacity="1.000000" stroke="none" 
	d="
M428.627502,441.762268 
	C430.683868,440.702606 432.404053,439.819885 434.646637,438.669037 
	C432.464050,443.704681 424.634552,447.846771 420.180054,445.772308 
	C413.156738,442.501495 406.601166,438.222504 399.884949,434.306213 
	C399.488281,434.074921 399.423340,433.274811 398.622894,431.320679 
	C404.721802,434.915344 409.628845,437.797546 414.525818,440.696838 
	C418.921356,443.299255 423.322571,445.734741 428.627502,441.762268 
z"/>
<path fill="#91B8D7" opacity="1.000000" stroke="none" 
	d="
M449.442230,422.634766 
	C444.981903,419.885040 440.838501,417.333221 436.695099,414.781372 
	C437.015991,414.281128 437.336853,413.780853 437.657745,413.280609 
	C442.716858,416.173340 447.744934,419.122131 452.843079,421.944397 
	C459.005371,425.355774 464.117584,421.455261 470.278290,417.902954 
	C465.886414,426.120850 458.220581,427.456818 449.442230,422.634766 
z"/>
<path fill="#8DB6CF" opacity="1.000000" stroke="none" 
	d="
M223.466095,298.674194 
	C211.959656,306.214752 201.881927,304.243896 191.690079,292.086151 
	C196.106461,294.415070 200.835739,296.306824 204.858551,299.185669 
	C209.683578,302.638672 213.877762,302.337402 218.595932,299.336548 
	C219.938339,298.482727 221.944092,298.671875 223.466095,298.674194 
z"/>
<path fill="#92BBD6" opacity="1.000000" stroke="none" 
	d="
M420.916443,392.121216 
	C421.921600,391.731445 422.617432,391.499390 423.313293,391.267334 
	C420.385254,395.940552 416.086426,398.818573 411.025269,398.779266 
	C405.996094,398.740173 401.634735,395.971680 398.415375,391.412811 
	C405.815887,395.644501 413.073822,399.043793 420.916443,392.121216 
z"/>
<path fill="#D2E9FA" opacity="1.000000" stroke="none" 
	d="
M256.862000,17.150627 
	C258.659729,17.692476 260.226257,18.528435 261.991028,19.638283 
	C261.363800,21.284122 260.538269,22.656075 259.420807,24.513220 
	C253.645020,24.891045 251.003174,23.204971 249.529755,17.444735 
	C251.917969,17.444735 254.274384,17.444735 256.862000,17.150627 
z"/>
<path fill="#91B8D7" opacity="1.000000" stroke="none" 
	d="
M362.412048,369.923126 
	C370.343506,376.088715 377.766052,374.871307 385.228760,368.721832 
	C383.989075,373.626343 376.367462,378.203461 371.476807,376.739258 
	C367.769226,375.629242 364.477478,373.130463 361.000702,371.249664 
	C361.377106,370.743378 361.753510,370.237122 362.412048,369.923126 
z"/>
<path fill="#90B6D3" opacity="1.000000" stroke="none" 
	d="
M234.650803,278.331787 
	C231.457642,276.311981 228.580002,274.481415 225.702347,272.650879 
	C225.948044,272.258820 226.193726,271.866730 226.439423,271.474640 
	C235.075089,274.006714 241.188538,283.508423 251.680954,280.925049 
	C249.894043,284.203522 247.589111,285.024811 243.719803,283.284973 
	C240.698746,281.926544 237.876755,280.125427 234.650803,278.331787 
z"/>
<path fill="#91B9D9" opacity="1.000000" stroke="none" 
	d="
M373.079346,417.967224 
	C368.498138,415.917114 364.311432,413.873779 360.124725,411.830444 
	C360.361664,411.329041 360.598602,410.827637 360.835510,410.326233 
	C364.891205,411.918335 368.937256,414.728271 373.005219,414.760315 
	C377.081787,414.792511 381.180206,412.052032 386.470093,410.078766 
	C382.667999,415.015991 378.262512,416.790588 373.079346,417.967224 
z"/>
<path fill="#96BBD9" opacity="1.000000" stroke="none" 
	d="
M394.490112,449.783936 
	C402.106262,455.880981 409.291870,454.599182 417.071747,448.116882 
	C414.864532,453.112946 407.807007,457.693787 404.269440,456.683716 
	C400.524017,455.614319 397.012146,453.623779 393.538513,451.772400 
	C392.574738,451.258698 390.747742,449.394318 394.490112,449.783936 
z"/>
<path fill="#8EB7D7" opacity="1.000000" stroke="none" 
	d="
M217.107666,329.323975 
	C213.850647,327.238037 210.930115,325.359619 208.009598,323.481201 
	C208.185989,322.780518 208.362396,322.079803 208.538803,321.379120 
	C216.833496,328.626007 225.073563,329.578491 233.761581,320.972412 
	C231.542786,327.456085 224.383011,330.649017 217.107666,329.323975 
z"/>
<path fill="#8DB5D4" opacity="1.000000" stroke="none" 
	d="
M248.378479,303.969727 
	C256.349487,310.625244 263.811462,308.976105 271.499359,302.488525 
	C269.652557,308.141479 260.813995,312.515167 255.848129,310.634399 
	C252.801376,309.480469 250.110641,307.375427 247.322586,305.599274 
	C247.231995,305.541534 247.827576,304.406708 248.378479,303.969727 
z"/>
<path fill="#90B6D3" opacity="1.000000" stroke="none" 
	d="
M325.761902,389.413940 
	C333.492554,395.852325 340.471649,392.844849 348.194580,387.076996 
	C342.370819,397.970154 331.773285,398.125885 321.736938,388.152405 
	C323.596832,388.693390 324.524109,388.963074 325.761902,389.413940 
z"/>
<path fill="#94BDDA" opacity="1.000000" stroke="none" 
	d="
M355.632385,448.510315 
	C356.644653,448.567383 357.557007,448.662292 358.156097,449.145508 
	C364.942566,454.619568 371.526367,453.693573 378.040283,448.661804 
	C378.277039,448.478943 378.648834,448.448669 378.965698,448.402557 
	C379.095276,448.383728 379.246216,448.512238 379.387451,448.573700 
	C378.053375,451.652802 371.798615,456.606903 368.282654,455.610199 
	C363.701965,454.311707 359.660492,451.110748 355.632385,448.510315 
z"/>
<path fill="#91B8D7" opacity="1.000000" stroke="none" 
	d="
M313.279877,354.380493 
	C315.446320,353.229156 317.289276,352.259308 319.534119,351.078033 
	C314.585297,361.053101 301.620728,361.453674 294.351746,351.835754 
	C300.808838,353.139099 306.101501,360.295593 313.279877,354.380493 
z"/>
<path fill="#91B9D9" opacity="1.000000" stroke="none" 
	d="
M387.277802,384.115723 
	C392.950470,383.673553 398.262909,383.063049 402.600433,382.564575 
	C396.281494,390.313538 387.893768,390.071777 379.813812,380.146698 
	C382.181732,381.413605 384.549652,382.680481 387.277802,384.115723 
z"/>
<path fill="#8FB8D5" opacity="1.000000" stroke="none" 
	d="
M348.928009,444.911377 
	C344.321411,442.986511 340.106873,441.049774 335.892334,439.113037 
	C336.056366,438.254974 336.220398,437.396912 336.384430,436.538818 
	C344.466125,442.879608 352.440948,444.165375 360.727905,436.062164 
	C359.096436,440.846161 356.066010,442.906036 348.928009,444.911377 
z"/>
<path fill="#89B2D1" opacity="1.000000" stroke="none" 
	d="
M350.819641,365.650574 
	C347.323547,363.543793 344.198120,361.579437 341.072693,359.615082 
	C341.278992,359.238281 341.485321,358.861450 341.691650,358.484650 
	C345.718750,360.254883 349.740265,363.398743 353.774536,363.415222 
	C357.943085,363.432281 362.124084,360.410400 366.192352,358.761444 
	C364.331329,362.956573 357.615112,366.157593 350.819641,365.650574 
z"/>
<path fill="#8AB5D4" opacity="1.000000" stroke="none" 
	d="
M295.252625,345.398132 
	C287.882568,349.948303 279.792084,347.954865 275.515717,340.225861 
	C283.336243,345.860138 291.231964,348.453583 299.405762,339.808105 
	C299.578735,340.561340 299.751709,341.314575 299.924652,342.067810 
	C298.473663,343.110291 297.022675,344.152740 295.252625,345.398132 
z"/>
<path fill="#8BB2D1" opacity="1.000000" stroke="none" 
	d="
M320.748535,394.314850 
	C319.295532,399.180786 314.712524,400.166412 310.613251,401.443848 
	C307.017090,402.564453 299.587250,398.407257 297.404694,393.843719 
	C305.187805,400.696869 312.847717,400.120392 320.748535,394.314850 
z"/>
<path fill="#91B8D7" opacity="1.000000" stroke="none" 
	d="
M421.736176,422.587708 
	C425.797668,420.811890 429.498322,419.135193 433.281982,417.420898 
	C429.003448,426.780853 415.460815,426.942413 408.096924,417.428711 
	C412.787872,419.286285 417.081604,420.986603 421.736176,422.587708 
z"/>
<path fill="#8BB2D1" opacity="1.000000" stroke="none" 
	d="
M326.081512,378.328339 
	C327.034271,377.847168 327.706421,377.565033 328.951904,377.042236 
	C322.491699,386.764648 311.533264,386.873657 303.529297,377.177002 
	C310.848022,381.808960 318.200348,385.105225 326.081512,378.328339 
z"/>
<path fill="#8FB8D5" opacity="1.000000" stroke="none" 
	d="
M341.689941,399.917664 
	C343.387695,400.242645 345.420319,400.507874 346.882660,401.563263 
	C352.077576,405.312256 357.036530,404.666718 362.098175,401.431732 
	C363.414398,400.590515 364.865448,399.960297 366.772095,398.962280 
	C361.457825,408.607758 350.977051,408.877747 341.689941,399.917664 
z"/>
<path fill="#8AB5D4" opacity="1.000000" stroke="none" 
	d="
M203.020294,352.343292 
	C204.930649,351.132355 206.527878,350.141235 208.125092,349.150146 
	C208.366333,349.567169 208.607559,349.984222 208.848801,350.401276 
	C205.479385,353.480713 201.897156,356.554657 197.030670,356.861816 
	C191.541626,357.208282 187.879944,353.522675 184.334793,349.684113 
	C190.258484,352.549469 195.851517,356.701019 203.020294,352.343292 
z"/>
<path fill="#89B2D1" opacity="1.000000" stroke="none" 
	d="
M165.876617,340.337585 
	C165.510696,336.415222 167.344345,339.054565 167.959503,339.497925 
	C171.713348,342.203430 175.769943,344.270325 180.397095,342.863770 
	C183.462982,341.931854 186.206314,339.938782 189.127487,338.403168 
	C187.843170,343.941956 178.256332,347.710876 172.815338,344.776031 
	C170.497833,343.525970 168.329544,341.999329 165.876617,340.337585 
z"/>
<path fill="#90B6D3" opacity="1.000000" stroke="none" 
	d="
M293.905029,332.440430 
	C290.328369,330.503662 287.113373,328.729950 283.898376,326.956207 
	C284.149872,326.477783 284.401398,325.999329 284.652924,325.520874 
	C288.669891,327.307922 292.691406,330.506531 296.702576,330.493652 
	C300.895447,330.480194 305.078400,327.377594 309.181702,325.660492 
	C307.469086,330.032410 300.229462,333.451355 293.905029,332.440430 
z"/>
<path fill="#8EB7D7" opacity="1.000000" stroke="none" 
	d="
M443.295959,435.767181 
	C436.274017,436.756958 431.811981,433.032013 427.449249,428.603821 
	C435.712158,434.540253 443.888702,435.908813 452.333649,427.899170 
	C452.519257,428.690308 452.704895,429.481445 452.890503,430.272583 
	C449.819275,432.058380 446.748047,433.844177 443.295959,435.767181 
z"/>
<path fill="#8DB6CF" opacity="1.000000" stroke="none" 
	d="
M221.479431,341.699249 
	C223.170029,340.702728 224.534973,339.885803 226.542938,338.684021 
	C221.121368,348.741394 208.200409,348.960602 201.823990,338.937897 
	C208.464157,342.338257 214.287460,346.951569 221.479431,341.699249 
z"/>
<path fill="#90B6D3" opacity="1.000000" stroke="none" 
	d="
M263.528625,350.794525 
	C257.502380,352.857544 250.805328,350.390564 246.461685,344.025574 
	C254.827316,350.294098 263.146484,352.003510 271.360046,343.359131 
	C271.602966,344.115509 271.845886,344.871857 272.088806,345.628235 
	C269.352142,347.291473 266.615509,348.954712 263.528625,350.794525 
z"/>
<path fill="#8BB2D1" opacity="1.000000" stroke="none" 
	d="
M340.072906,351.294952 
	C342.557220,349.742798 344.731781,348.402557 346.906372,347.062286 
	C347.183655,347.509094 347.460938,347.955933 347.738251,348.402740 
	C344.334198,351.326416 340.774963,354.319336 336.055603,354.861847 
	C330.164673,355.539093 326.367523,351.465942 322.431488,347.897614 
	C328.287628,349.075195 332.902954,355.417725 340.072906,351.294952 
z"/>
<path fill="#8FB8D5" opacity="1.000000" stroke="none" 
	d="
M336.287628,365.429321 
	C326.097473,371.997070 319.417023,371.227722 312.729614,362.139618 
	C317.563446,364.311218 321.558960,367.523407 325.542053,367.508057 
	C329.758331,367.491852 333.962769,364.405182 339.533722,362.095123 
	C338.003754,363.722839 337.292236,364.479797 336.287628,365.429321 
z"/>
<path fill="#89B2D1" opacity="1.000000" stroke="none" 
	d="
M391.702087,409.403992 
	C390.661835,408.515961 389.918945,407.814789 389.176086,407.113586 
	C389.280701,406.562897 389.385315,406.012177 389.489929,405.461487 
	C397.780609,412.857025 405.977631,413.560638 414.462036,405.174408 
	C411.694916,413.900421 401.300964,415.390961 391.702087,409.403992 
z"/>
<path fill="#8EB7D7" opacity="1.000000" stroke="none" 
	d="
M346.544647,380.952332 
	C340.144348,381.393646 336.303680,377.606842 332.620728,373.430267 
	C336.504883,375.242126 340.347595,378.373108 344.284790,378.496796 
	C348.263000,378.621765 352.334839,375.766602 356.365692,374.216949 
	C356.628540,374.657532 356.891388,375.098083 357.154236,375.538666 
	C353.751160,377.322479 350.348083,379.106262 346.544647,380.952332 
z"/>
<path fill="#89B2D1" opacity="1.000000" stroke="none" 
	d="
M383.802216,400.891479 
	C387.814606,399.005554 391.439789,397.141510 395.065002,395.277435 
	C392.233734,399.415527 388.381775,402.358612 383.579529,402.853638 
	C377.938324,403.435181 374.120972,399.508453 370.570709,395.556274 
	C374.852142,397.341980 379.133606,399.127686 383.802216,400.891479 
z"/>
<path fill="#8FB8D5" opacity="1.000000" stroke="none" 
	d="
M252.181030,334.159119 
	C248.186371,340.140045 240.635529,342.413544 234.679657,339.280487 
	C232.014648,337.878540 229.513489,336.165192 227.188538,333.508209 
	C235.318985,339.245331 243.216492,340.172607 251.588623,333.985077 
	C252.018967,334.007904 252.181030,334.159119 252.181030,334.159119 
z"/>
<path fill="#8AB5D4" opacity="1.000000" stroke="none" 
	d="
M354.535858,427.535034 
	C355.793030,427.832794 356.875580,428.251740 357.807861,428.890167 
	C363.129883,432.534637 368.431671,433.081421 373.903809,429.152740 
	C375.150635,428.257538 376.702301,427.786987 379.134949,426.639130 
	C370.138275,436.807129 363.027496,436.855255 354.535858,427.535034 
z"/>
<path fill="#8BB2D1" opacity="1.000000" stroke="none" 
	d="
M239.138519,309.339905 
	C240.411942,308.598328 241.396637,308.063751 242.381348,307.529175 
	C240.832230,312.360413 236.466675,313.524780 232.602875,314.810638 
	C228.330994,316.232361 221.382523,312.463623 218.492493,307.280884 
	C225.010834,311.424408 231.489380,316.072266 239.138519,309.339905 
z"/>
<path fill="#8CB4D3" opacity="1.000000" stroke="none" 
	d="
M340.115509,420.988831 
	C338.177582,419.647644 336.565796,418.472778 334.954041,417.297913 
	C335.123352,417.097473 335.292694,416.897034 335.462006,416.696594 
	C339.508636,418.139954 343.557953,420.712036 347.601166,420.702576 
	C351.482391,420.693481 355.357391,418.008667 359.299164,416.474731 
	C354.797516,423.325104 347.866913,425.023010 340.115509,420.988831 
z"/>
<path fill="#89B2D1" opacity="1.000000" stroke="none" 
	d="
M336.928406,409.016724 
	C327.685242,414.129303 323.207794,413.435730 315.645813,405.282562 
	C320.379791,407.092255 324.276917,409.772369 328.147430,409.734528 
	C332.205109,409.694794 336.237335,407.047302 340.817841,406.305450 
	C339.628723,407.155457 338.439606,408.005463 336.928406,409.016724 
z"/>
<path fill="#91BBDD" opacity="1.000000" stroke="none" 
	d="
M273.228210,379.121674 
	C266.862915,380.122101 262.873322,376.933167 259.253754,372.473175 
	C267.139679,378.043243 274.916840,378.937439 282.768341,371.414124 
	C283.004883,372.304810 283.241425,373.195496 283.477966,374.086151 
	C280.187103,375.744904 276.896240,377.403656 273.228210,379.121674 
z"/>
<path fill="#90B6D3" opacity="1.000000" stroke="none" 
	d="
M269.107178,316.050293 
	C276.333771,321.792206 282.942474,318.801239 289.525452,315.067871 
	C282.098694,324.101013 275.597748,324.257629 265.701843,315.379211 
	C267.208893,315.631195 267.997681,315.763092 269.107178,316.050293 
z"/>
<path fill="#91BBDD" opacity="1.000000" stroke="none" 
	d="
M285.258392,389.158844 
	C282.535431,387.517609 280.178040,386.041840 277.820679,384.566071 
	C277.998047,383.804901 278.175446,383.043732 278.352844,382.282593 
	C286.372406,389.694519 294.310577,389.276031 302.836761,381.866425 
	C300.068695,388.647888 293.190094,391.088837 285.258392,389.158844 
z"/>
<path fill="#8DB5D4" opacity="1.000000" stroke="none" 
	d="
M230.745117,357.379486 
	C227.289719,355.565063 224.196350,353.888214 221.102966,352.211365 
	C221.236298,351.461853 221.369629,350.712341 221.502960,349.962830 
	C229.623215,356.309021 237.499664,356.790924 245.067245,349.842773 
	C242.908859,354.812653 236.774323,357.919647 230.745117,357.379486 
z"/>
<path fill="#8FB8D5" opacity="1.000000" stroke="none" 
	d="
M241.172226,361.806091 
	C242.813980,362.569427 244.532318,363.203308 246.082977,364.120636 
	C250.511383,366.740326 254.745514,366.856689 259.015076,363.721436 
	C260.224304,362.833435 261.773376,362.408295 264.476227,361.171722 
	C255.702805,371.305420 248.690170,370.399719 240.916016,362.486267 
	C240.951111,362.036621 241.172226,361.806091 241.172226,361.806091 
z"/>
<path fill="#89B2D1" opacity="1.000000" stroke="none" 
	d="
M214.970490,287.272858 
	C212.426071,285.581848 210.200317,284.107819 207.974579,282.633789 
	C208.146667,281.929565 208.318756,281.225342 208.490829,280.521118 
	C216.324432,287.759460 224.305267,288.936920 232.487228,281.835052 
	C227.439423,288.895935 220.378296,291.035248 214.970490,287.272858 
z"/>
<path fill="#89B2D1" opacity="1.000000" stroke="none" 
	d="
M280.634216,330.991913 
	C278.109589,332.938812 275.732147,334.750305 273.123169,336.121216 
	C268.032867,338.795959 259.363007,335.327301 256.654724,329.720215 
	C256.790131,329.645935 257.000671,329.473358 257.050262,329.511261 
	C264.307983,335.060669 271.693878,336.650208 279.409943,330.348816 
	C279.612885,330.183105 280.244873,330.542755 280.634216,330.991913 
z"/>
<path fill="#8AB5D4" opacity="1.000000" stroke="none" 
	d="
M229.523407,295.649506 
	C228.555145,294.652466 227.881073,293.845154 226.441162,292.120605 
	C231.551834,294.375061 235.454727,297.364563 239.457794,297.505280 
	C243.446091,297.645538 247.534866,294.927704 251.852310,293.364258 
	C243.366013,302.042633 238.474747,302.200653 229.523407,295.649506 
z"/>
<path fill="#8CB4D3" opacity="1.000000" stroke="none" 
	d="
M377.818481,440.341248 
	C385.178253,446.182495 391.060059,440.619659 398.204681,437.462585 
	C389.750763,447.701019 380.487061,447.054932 373.587494,438.300171 
	C374.889008,438.920166 376.190491,439.540161 377.818481,440.341248 
z"/>
<path fill="#85B0CC" opacity="1.000000" stroke="none" 
	d="
M303.325531,369.465546 
	C305.437134,368.216217 307.232971,367.162476 309.502991,365.830475 
	C306.482605,373.875427 296.509186,375.824066 290.752319,371.243805 
	C294.198456,370.798828 298.604126,370.229950 303.325531,369.465546 
z"/>
<path fill="#91B9D9" opacity="1.000000" stroke="none" 
	d="
M355.169250,348.011261 
	C352.559174,346.355377 350.291443,344.864960 348.023682,343.374542 
	C348.153351,343.149994 348.282990,342.925415 348.412659,342.700867 
	C354.038116,344.475311 359.663574,346.249725 365.113434,347.968781 
	C363.514313,350.796661 361.424500,351.051941 355.169250,348.011261 
z"/>
<path fill="#91B8D7" opacity="1.000000" stroke="none" 
	d="
M480.427155,413.815369 
	C477.524292,414.532867 474.498749,415.849060 472.116730,415.105042 
	C468.764221,414.057922 465.888855,411.483032 462.809479,409.561401 
	C463.084686,409.087067 463.359894,408.612732 463.635101,408.138397 
	C465.266327,409.022949 466.805054,410.269318 468.548492,410.714966 
	C471.939423,411.581848 475.450317,411.972260 478.898376,412.629211 
	C479.496094,412.743103 480.028900,413.197479 480.427155,413.815369 
z"/>
<path fill="#8FB8D5" opacity="1.000000" stroke="none" 
	d="
M340.320770,336.057800 
	C342.669006,336.091339 344.612579,336.091339 346.465057,336.091339 
	C344.155579,341.287720 335.299011,339.195740 329.716705,331.131287 
	C333.116516,332.762268 336.516296,334.393280 340.320770,336.057800 
z"/>
<path fill="#9DC2DF" opacity="1.000000" stroke="none" 
	d="
M376.955078,357.510986 
	C379.705353,357.882202 382.091125,358.075500 384.685944,358.285736 
	C380.807343,362.502380 371.439117,359.789337 366.573853,352.261688 
	C370.725647,354.363708 373.658142,355.848419 376.955078,357.510986 
z"/>
<path fill="#90B6D3" opacity="1.000000" stroke="none" 
	d="
M449.732941,402.389648 
	C447.374390,400.892365 445.334442,399.592529 443.294495,398.292694 
	C443.414032,398.059601 443.533539,397.826508 443.653046,397.593384 
	C449.212463,399.422546 454.771912,401.251678 460.101654,403.005249 
	C458.288330,405.881348 456.228394,406.004395 449.732941,402.389648 
z"/>
<path fill="#8BB2D1" opacity="1.000000" stroke="none" 
	d="
M430.329285,388.851318 
	C434.059052,389.996887 437.471497,390.923370 440.699799,391.799866 
	C438.174347,396.010040 431.505585,394.234741 424.848877,386.003510 
	C426.569916,386.879761 428.290924,387.756012 430.329285,388.851318 
z"/>
<path fill="#96BBD9" opacity="1.000000" stroke="none" 
	d="
M397.912537,427.040741 
	C394.388489,428.895905 391.218658,430.507080 389.090485,427.022614 
	C394.135315,425.236877 399.286804,423.413422 404.438293,421.589935 
	C404.650757,421.869904 404.863220,422.149872 405.075684,422.429840 
	C402.803070,423.913910 400.530457,425.397949 397.912537,427.040741 
z"/>
<path fill="#8DB5D4" opacity="1.000000" stroke="none" 
	d="
M147.047607,329.971710 
	C143.826355,327.995087 140.937271,326.178894 138.048187,324.362732 
	C138.336090,323.870087 138.623993,323.377441 138.911896,322.884796 
	C144.602356,326.092743 150.292816,329.300690 155.983276,332.508606 
	C155.697464,333.073761 155.411652,333.638947 155.125824,334.204102 
	C152.543808,332.846802 149.961777,331.489502 147.047607,329.971710 
z"/>
<path fill="#89B2D1" opacity="1.000000" stroke="none" 
	d="
M252.905884,323.218506 
	C255.920853,321.690338 258.562347,320.289764 261.203827,318.889221 
	C256.481354,325.976410 250.671249,327.637573 244.354248,324.182190 
	C247.281464,323.882935 249.906952,323.614532 252.905884,323.218506 
z"/>
<path fill="#96BBD9" opacity="1.000000" stroke="none" 
	d="
M430.971161,407.370728 
	C434.681854,405.686157 438.392548,404.001587 442.151520,402.295105 
	C441.107574,406.622437 433.545227,410.332275 427.647675,409.264648 
	C428.817291,408.455963 429.894226,407.913361 430.971161,407.370728 
z"/>
<path fill="#94BDDA" opacity="1.000000" stroke="none" 
	d="
M430.578735,407.279724 
	C429.894226,407.913361 428.817291,408.455963 427.383240,408.997253 
	C423.660614,407.263580 420.295105,405.531311 416.929626,403.799011 
	C417.165924,403.339020 417.402191,402.879028 417.638489,402.419037 
	C421.821106,404.008942 426.003723,405.598846 430.578735,407.279724 
z"/>
<path fill="#D2E9FA" opacity="1.000000" stroke="none" 
	d="
M270.474182,32.308094 
	C270.468353,31.551777 270.673706,31.015120 270.879059,30.478466 
	C271.153778,30.613558 271.428467,30.748648 271.703186,30.883736 
	C271.363922,31.431742 271.024658,31.979750 270.474182,32.308094 
z"/>
<path fill="#D2E9FA" opacity="1.000000" stroke="none" 
	d="
M245.924362,22.074387 
	C245.279312,22.385880 244.550613,22.463215 243.454849,22.556835 
	C244.005432,22.328823 244.923065,22.084526 245.924362,22.074387 
z"/>
<path fill="#5181AF" opacity="1.000000" stroke="none" 
	d="
M518.497559,399.387024 
	C518.549683,399.349213 518.445496,399.424866 518.497559,399.387024 
z"/>
<path fill="#8FB8D5" opacity="1.000000" stroke="none" 
	d="
M240.836700,362.148041 
	C240.584625,362.051178 240.446991,361.842865 240.309357,361.634583 
	C240.510834,361.597168 240.712296,361.559753 241.042999,361.664215 
	C241.172226,361.806091 240.951111,362.036621 240.836700,362.148041 
z"/>
<path fill="#8FB8D5" opacity="1.000000" stroke="none" 
	d="
M251.942596,333.927551 
	C252.061356,333.878784 252.256470,333.910339 252.316299,334.050476 
	C252.181030,334.159119 252.018967,334.007904 251.942596,333.927551 
z"/>
<path fill="#54B5B6" opacity="1.000000" stroke="none" 
	d="
M402.314453,171.286957 
	C404.529480,167.532303 406.376892,163.957047 408.734985,160.758270 
	C409.381439,159.881348 412.193329,159.365494 412.936157,159.981247 
	C423.182434,168.474915 433.243988,177.191513 443.330750,185.876785 
	C443.676483,186.174484 443.812775,186.715424 444.303955,187.613297 
	C415.241516,218.054214 386.119629,248.557373 356.388458,279.698730 
	C341.804199,245.966049 327.538666,212.970551 313.273132,179.975067 
	C313.642456,179.574310 314.011780,179.173553 314.381073,178.772797 
	C322.616241,180.459488 330.879913,182.025848 339.055084,183.965393 
	C340.251587,184.249237 341.356018,186.170914 341.945831,187.569733 
	C347.959930,201.832626 353.844086,216.150269 359.806671,230.435028 
	C360.610474,232.360733 361.646454,234.189514 363.050201,237.022293 
	C376.440186,214.614670 389.289734,193.111465 402.314453,171.286957 
z"/>
<path fill="#6095CC" opacity="1.000000" stroke="none" 
	d="
M342.887787,127.260208 
	C353.666626,130.821747 364.089417,131.082306 374.695007,128.159027 
	C376.267242,127.725670 379.079224,128.578384 380.088959,129.828506 
	C387.586884,139.111359 394.774231,148.645050 402.423767,158.573242 
	C401.390442,159.467377 399.953491,160.710724 397.738251,162.627548 
	C391.310333,154.686981 384.895813,147.127380 378.938568,139.223160 
	C376.581421,136.095596 374.697510,134.807098 370.454224,135.720642 
	C355.837799,138.867447 342.136230,134.865509 328.801544,129.145157 
	C327.771179,128.703140 326.717773,128.314819 325.224640,127.723022 
	C325.224640,138.237503 325.224640,148.250946 325.224640,158.603745 
	C321.275208,159.345932 318.804260,158.922607 318.785858,153.682922 
	C318.746735,142.544006 318.174957,131.407288 317.864746,120.268471 
	C317.829834,119.014565 318.072968,117.752899 318.181000,116.562920 
	C326.475372,120.171852 334.489807,123.658981 342.887787,127.260208 
z"/>
<path fill="#6096CA" opacity="1.000000" stroke="none" 
	d="
M419.161987,260.006012 
	C424.893188,249.732620 426.900879,238.750565 427.807587,227.649536 
	C428.208221,222.744400 429.886810,219.531189 435.192230,216.550446 
	C434.744537,222.297546 434.547821,227.273529 433.936707,232.198074 
	C432.261719,245.695312 429.552063,259.047974 420.040314,269.402191 
	C415.072327,274.810150 408.931427,279.350739 402.718658,283.348053 
	C396.036133,287.647644 388.569214,290.708893 381.600403,294.590302 
	C377.625214,296.804321 375.121338,295.915466 372.991577,291.549133 
	C381.638489,287.063507 390.146667,282.652008 398.652832,278.236511 
	C406.911774,273.949341 414.003693,268.335358 419.161987,260.006012 
z"/>
</svg>