<svg version="1.1" id="Layer_1" xmlns="http://www.w3.org/2000/svg" xmlns:xlink="http://www.w3.org/1999/xlink" x="0px" y="0px"
	 width="100%" viewBox="0 0 545 545" enable-background="new 0 0 545 545" xml:space="preserve">
<path fill="#056DFF" opacity="1.000000" stroke="none" 
	d="
M258.000000,0.999997 
	C268.020905,1.000000 278.041779,1.000000 288.725708,1.388273 
	C299.324249,2.849352 309.394714,3.236270 319.163452,5.157314 
	C333.462341,7.969214 347.973541,10.696775 361.608063,15.632223 
	C377.565491,21.408527 392.973358,28.946831 408.084473,36.756271 
	C427.319061,46.696720 444.486938,59.839737 460.106750,74.790688 
	C468.683746,83.000435 477.140381,91.574295 484.222290,101.051796 
	C494.811890,115.223595 504.724030,129.986267 513.847351,145.145752 
	C523.331543,160.904800 529.805847,178.190384 534.847656,195.862167 
	C540.310608,215.010208 544.445435,234.465836 545.038879,254.502792 
	C545.073608,255.676987 545.666748,256.834656 546.000000,258.000000 
	C546.000000,268.020905 546.000000,278.041779 545.611755,288.725708 
	C543.379578,303.814758 542.526917,318.454132 539.478088,332.620880 
	C533.751892,359.229004 524.036499,384.469391 510.448151,408.204559 
	C499.681641,427.010742 487.079041,444.463989 472.165741,460.066040 
	C462.623352,470.049194 452.116974,479.211487 441.393280,487.944275 
	C418.108551,506.906219 391.952209,520.928345 363.585144,530.707947 
	C339.751221,538.924683 315.345490,544.453613 289.997528,545.047424 
	C289.324615,545.063110 288.665527,545.669189 288.000000,546.000000 
	C278.645782,546.000000 269.291534,546.000000 259.274292,545.611694 
	C253.526550,544.816101 248.413620,544.622437 243.363129,543.955750 
	C233.667389,542.675964 223.853607,541.784424 214.361328,539.565796 
	C187.862137,533.372314 162.518570,524.072021 138.792053,510.451904 
	C119.998833,499.663788 102.535332,487.078613 86.933418,472.165222 
	C76.950363,462.622772 67.788048,452.116486 59.055317,441.392853 
	C40.093586,418.108063 26.071445,391.951843 16.291983,363.584839 
	C8.075325,339.751038 2.546267,315.345428 1.952612,289.997528 
	C1.936853,289.324646 1.330785,288.665527 1.000001,288.000000 
	C1.000000,278.645782 1.000000,269.291534 1.388274,259.274292 
	C3.544905,243.999893 4.194533,229.143860 7.324244,214.830124 
	C13.096338,188.431412 22.565569,163.236023 36.029682,139.636627 
	C53.380020,109.225594 75.418800,82.754684 102.739021,60.903099 
	C127.948479,40.739754 155.878769,25.250750 186.625610,15.158072 
	C208.997391,7.814524 231.834900,2.676897 255.502594,1.958448 
	C256.343994,1.932907 257.167938,1.332485 258.000000,0.999997 
M386.343353,470.119751 
	C399.988434,467.694672 413.633514,465.269562 427.882935,463.176727 
	C428.973724,463.934875 430.020142,465.232117 431.165558,465.326447 
	C432.939117,465.472412 435.768372,465.360260 436.353180,464.333832 
	C437.160767,462.916229 437.071594,459.587555 436.023682,458.742462 
	C429.700958,453.643494 427.585388,446.476135 425.845795,439.193420 
	C425.298248,436.901093 425.623627,433.835052 426.759033,431.796906 
	C434.608215,417.706604 436.059540,403.190033 430.552490,388.011566 
	C426.408936,376.591339 422.423401,365.107849 417.959290,353.813873 
	C416.808746,350.903046 414.592407,347.912903 412.041016,346.158264 
	C406.356201,342.248627 400.635376,344.124481 395.330627,347.824432 
	C390.057159,344.187286 384.041443,342.432312 379.052704,346.662567 
	C374.097565,350.864319 369.395477,348.859283 364.012817,348.908722 
	C364.012817,346.528656 364.012848,344.554230 364.012848,342.579803 
	C364.012787,293.595673 363.981720,244.611465 364.079193,195.627518 
	C364.086060,192.182419 363.073120,189.729309 360.627014,187.314987 
	C345.923401,172.802261 331.303772,158.202774 316.809265,143.481400 
	C314.246643,140.878677 311.645416,139.906723 308.031769,139.915802 
	C264.212891,140.025909 220.393661,139.985947 176.574524,139.988327 
	C168.547409,139.988770 167.989395,140.533569 167.988968,148.433502 
	C167.985764,208.580704 167.987198,268.727905 167.987183,328.875092 
	C167.987183,330.635803 167.987183,332.396545 167.987183,334.352203 
	C159.286469,330.835968 154.637131,330.997772 146.892639,336.189453 
	C141.806152,339.599304 137.467102,344.102783 132.525284,347.753723 
	C118.211060,358.328827 112.970383,373.215271 113.179985,390.104828 
	C113.311279,400.685089 108.621735,402.882965 100.573174,405.842865 
	C97.700058,406.899506 94.821518,407.607544 95.363182,411.236237 
	C95.912094,414.913605 99.088875,414.945404 102.333046,415.509338 
	C109.637527,427.367920 116.942009,439.226501 124.137154,451.846893 
	C123.849312,453.145905 123.004906,454.657410 123.401138,455.695251 
	C124.030678,457.344086 125.276199,459.563721 126.655403,459.893646 
	C128.033920,460.223328 131.013580,458.859589 131.366608,457.667938 
	C133.737030,449.667267 139.958786,445.141022 146.148102,440.673523 
	C147.908615,439.402771 150.731873,438.726227 152.892105,439.029297 
	C167.321198,441.053619 180.620529,438.233185 191.924118,429.094482 
	C202.792267,420.307770 213.056763,410.760712 223.392868,401.335419 
	C228.511551,396.667847 229.065582,390.510101 225.538361,384.534271 
	C224.983551,383.594299 224.332291,382.711243 223.562820,381.557831 
	C260.045929,381.557831 295.996979,381.557831 330.765442,381.557831 
	C329.869141,386.536987 327.793091,391.463440 328.382019,396.047546 
	C330.091949,409.357849 334.815857,421.847351 341.965454,433.251648 
	C343.777283,436.141754 346.359222,438.850067 349.190247,440.737579 
	C355.120941,444.691803 361.316528,448.308655 367.655121,451.575470 
	C375.015411,455.368805 377.957306,460.039795 376.731171,468.144623 
	C376.274475,471.163300 375.762360,474.037384 379.467224,475.017181 
	C383.497620,476.083130 384.624481,473.119751 386.343353,470.119751 
z"/>
<path fill="#FFFFFF" opacity="1.000000" stroke="none" 
	d="
M1.000001,288.468658 
	C1.330785,288.665527 1.936853,289.324646 1.952612,289.997528 
	C2.546267,315.345428 8.075325,339.751038 16.291983,363.584839 
	C26.071445,391.951843 40.093586,418.108063 59.055317,441.392853 
	C67.788048,452.116486 76.950363,462.622772 86.933418,472.165222 
	C102.535332,487.078613 119.998833,499.663788 138.792053,510.451904 
	C162.518570,524.072021 187.862137,533.372314 214.361328,539.565796 
	C223.853607,541.784424 233.667389,542.675964 243.363129,543.955750 
	C248.413620,544.622437 253.526550,544.816101 258.805634,545.611694 
	C173.072952,546.000000 87.145897,546.000000 1.000000,546.000000 
	C1.000000,460.312561 1.000000,374.624939 1.000001,288.468658 
z"/>
<path fill="#FFFFFF" opacity="1.000000" stroke="none" 
	d="
M288.468658,546.000000 
	C288.665527,545.669189 289.324615,545.063110 289.997528,545.047424 
	C315.345490,544.453613 339.751221,538.924683 363.585144,530.707947 
	C391.952209,520.928345 418.108551,506.906219 441.393280,487.944275 
	C452.116974,479.211487 462.623352,470.049194 472.165741,460.066040 
	C487.079041,444.463989 499.681641,427.010742 510.448151,408.204559 
	C524.036499,384.469391 533.751892,359.229004 539.478088,332.620880 
	C542.526917,318.454132 543.379578,303.814758 545.611755,289.194336 
	C546.000000,374.593872 546.000000,460.187744 546.000000,546.000000 
	C460.312561,546.000000 374.624939,546.000000 288.468658,546.000000 
z"/>
<path fill="#FFFFFF" opacity="1.000000" stroke="none" 
	d="
M257.531342,0.999997 
	C257.167938,1.332485 256.343994,1.932907 255.502594,1.958448 
	C231.834900,2.676897 208.997391,7.814524 186.625610,15.158072 
	C155.878769,25.250750 127.948479,40.739754 102.739021,60.903099 
	C75.418800,82.754684 53.380020,109.225594 36.029682,139.636627 
	C22.565569,163.236023 13.096338,188.431412 7.324244,214.830124 
	C4.194533,229.143860 3.544905,243.999893 1.388274,258.805664 
	C1.000000,173.073105 1.000000,87.146217 1.000000,1.000000 
	C86.354103,1.000000 171.708389,1.000000 257.531342,0.999997 
z"/>
<path fill="#FFFFFF" opacity="1.000000" stroke="none" 
	d="
M546.000000,257.531342 
	C545.666748,256.834656 545.073608,255.676987 545.038879,254.502792 
	C544.445435,234.465836 540.310608,215.010208 534.847656,195.862167 
	C529.805847,178.190384 523.331543,160.904800 513.847351,145.145752 
	C504.724030,129.986267 494.811890,115.223595 484.222290,101.051796 
	C477.140381,91.574295 468.683746,83.000435 460.106750,74.790688 
	C444.486938,59.839737 427.319061,46.696720 408.084473,36.756271 
	C392.973358,28.946831 377.565491,21.408527 361.608063,15.632223 
	C347.973541,10.696775 333.462341,7.969214 319.163452,5.157314 
	C309.394714,3.236270 299.324249,2.849352 289.194336,1.388273 
	C374.593719,1.000000 460.187408,1.000000 546.000000,1.000000 
	C546.000000,86.354103 546.000000,171.708389 546.000000,257.531342 
z"/>
<path fill="#0F2A5F" opacity="1.000000" stroke="none" 
	d="
M102.023712,414.887024 
	C99.088875,414.945404 95.912094,414.913605 95.363182,411.236237 
	C94.821518,407.607544 97.700058,406.899506 100.573174,405.842865 
	C108.621735,402.882965 113.311279,400.685089 113.179985,390.104828 
	C112.970383,373.215271 118.211060,358.328827 132.525284,347.753723 
	C137.467102,344.102783 141.806152,339.599304 146.892639,336.189453 
	C154.637131,330.997772 159.286469,330.835968 167.987183,334.352203 
	C167.987183,332.396545 167.987183,330.635803 167.987183,328.875092 
	C167.987198,268.727905 167.985764,208.580704 167.988968,148.433502 
	C167.989395,140.533569 168.547409,139.988770 176.574524,139.988327 
	C220.393661,139.985947 264.212891,140.025909 308.031769,139.915802 
	C311.645416,139.906723 314.246643,140.878677 316.809265,143.481400 
	C331.303772,158.202774 345.923401,172.802261 360.627014,187.314987 
	C363.073120,189.729309 364.086060,192.182419 364.079193,195.627518 
	C363.981720,244.611465 364.012787,293.595673 364.012848,342.579803 
	C364.012848,344.554230 364.012817,346.528656 364.012817,348.908722 
	C369.395477,348.859283 374.097565,350.864319 379.052704,346.662567 
	C384.041443,342.432312 390.057159,344.187286 395.330627,347.824432 
	C400.635376,344.124481 406.356201,342.248627 412.041016,346.158264 
	C414.592407,347.912903 416.808746,350.903046 417.959290,353.813873 
	C422.423401,365.107849 426.408936,376.591339 430.552490,388.011566 
	C436.059540,403.190033 434.608215,417.706604 426.759033,431.796906 
	C425.623627,433.835052 425.298248,436.901093 425.845795,439.193420 
	C427.585388,446.476135 429.700958,453.643494 436.023682,458.742462 
	C437.071594,459.587555 437.160767,462.916229 436.353180,464.333832 
	C435.768372,465.360260 432.939117,465.472412 431.165558,465.326447 
	C430.020142,465.232117 428.973724,463.934875 427.445923,462.697449 
	C420.374603,454.473175 417.748322,445.047607 416.110840,435.319580 
	C415.805542,433.505707 416.823547,431.154175 417.894592,429.473907 
	C425.658600,417.293884 427.339020,404.505737 422.331848,390.882355 
	C419.757477,383.878113 417.307068,376.828430 414.762573,369.813049 
	C413.236115,365.604553 411.511353,361.463928 410.108917,357.215820 
	C408.980743,353.798431 406.942139,351.914612 403.425201,353.276245 
	C399.889496,354.645111 399.730957,357.522919 401.126373,360.723969 
	C401.921204,362.547333 402.445557,364.487030 403.203369,366.328430 
	C404.420959,369.287262 403.900757,372.133850 400.762024,372.633545 
	C399.078735,372.901459 396.157928,371.016113 395.241791,369.320862 
	C393.292542,365.713989 392.281219,361.598907 390.898346,357.687592 
	C389.794403,354.565125 388.068695,352.082275 384.329895,353.483490 
	C380.841583,354.790771 380.402924,357.455566 381.772247,360.824554 
	C383.646149,365.435028 385.263214,370.152740 386.896942,374.856873 
	C387.852814,377.609192 387.929382,380.323822 384.564301,381.439209 
	C381.293793,382.523193 379.723114,380.535492 378.718597,377.683472 
	C376.896912,372.511475 374.851471,367.417053 373.088287,362.226074 
	C371.942932,358.854065 369.950378,356.889099 366.406372,358.263763 
	C362.851532,359.642670 362.828308,362.534546 364.092987,365.740204 
	C365.308746,368.822021 366.688171,371.934998 367.189087,375.159576 
	C367.413086,376.601807 365.876770,379.484283 364.762543,379.691956 
	C363.121490,379.997864 360.626984,378.959229 359.445801,377.641724 
	C358.109680,376.151367 357.817474,373.721863 357.081787,371.696960 
	C352.721283,359.695190 348.385315,347.684479 343.991333,335.695007 
	C342.788452,332.412781 340.963623,329.083130 336.879913,330.676483 
	C333.221527,332.103851 333.552917,335.550293 334.840546,338.807373 
	C335.816010,341.274811 336.650848,343.797668 337.557220,346.292603 
	C344.697998,365.949341 351.852509,385.601074 358.971283,405.265778 
	C360.087402,408.348938 362.065369,412.051971 357.611267,413.807800 
	C353.148834,415.566895 352.087646,411.719971 350.942261,408.500580 
	C349.384827,404.123016 347.817963,399.744324 346.078125,395.437653 
	C344.793427,392.257568 344.589417,386.829254 339.696442,388.224243 
	C334.925293,389.584473 336.506439,394.865479 337.375214,398.234497 
	C339.234711,405.445618 341.938385,412.442810 344.375763,419.500214 
	C347.036102,427.203186 352.021454,433.093781 358.992859,437.186951 
	C363.423096,439.788055 367.874390,442.672211 372.704987,444.202271 
	C381.266693,446.914154 383.973633,453.307709 385.024078,461.094757 
	C385.421021,464.037445 385.307159,467.049011 385.426147,470.029205 
	C384.624481,473.119751 383.497620,476.083130 379.467224,475.017181 
	C375.762360,474.037384 376.274475,471.163300 376.731171,468.144623 
	C377.957306,460.039795 375.015411,455.368805 367.655121,451.575470 
	C361.316528,448.308655 355.120941,444.691803 349.190247,440.737579 
	C346.359222,438.850067 343.777283,436.141754 341.965454,433.251648 
	C334.815857,421.847351 330.091949,409.357849 328.382019,396.047546 
	C327.793091,391.463440 329.869141,386.536987 330.765442,381.557831 
	C295.996979,381.557831 260.045929,381.557831 223.562820,381.557831 
	C224.332291,382.711243 224.983551,383.594299 225.538361,384.534271 
	C229.065582,390.510101 228.511551,396.667847 223.392868,401.335419 
	C213.056763,410.760712 202.792267,420.307770 191.924118,429.094482 
	C180.620529,438.233185 167.321198,441.053619 152.892105,439.029297 
	C150.731873,438.726227 147.908615,439.402771 146.148102,440.673523 
	C139.958786,445.141022 133.737030,449.667267 131.366608,457.667938 
	C131.013580,458.859589 128.033920,460.223328 126.655403,459.893646 
	C125.276199,459.563721 124.030678,457.344086 123.401138,455.695251 
	C123.004906,454.657410 123.849312,453.145905 124.449402,451.256958 
	C129.539917,441.423187 137.571548,435.520203 146.103561,430.234680 
	C147.417892,429.420471 149.520050,429.739136 151.254135,429.766846 
	C157.027008,429.859222 163.078278,431.221558 168.498230,429.917236 
	C175.089249,428.331055 181.923676,425.550110 187.270950,421.473450 
	C197.566162,413.624634 206.876221,404.485992 216.625305,395.916931 
	C219.123154,393.721405 220.048660,391.309082 217.631348,388.610107 
	C215.225296,385.923737 212.687576,386.501038 210.255569,388.777863 
	C208.798813,390.141663 207.223251,391.379547 205.781189,392.757874 
	C203.435181,395.000122 200.769287,396.033813 198.417496,393.284393 
	C196.290222,390.797424 197.504150,388.354401 199.813873,386.370575 
	C202.969833,383.659973 206.018417,380.823944 209.186966,378.128601 
	C211.728256,375.966888 212.629929,373.534332 210.292374,370.826630 
	C207.965302,368.131042 205.430832,368.562164 202.924454,370.843475 
	C199.233917,374.202606 195.426605,377.433594 191.741211,380.798218 
	C189.379593,382.954376 186.804489,384.194427 184.400970,381.364838 
	C182.010422,378.550507 183.721451,376.197784 186.091919,374.153198 
	C189.747360,371.000275 193.305862,367.735291 196.931992,364.548004 
	C199.632462,362.174377 202.763840,359.738708 199.294327,355.939880 
	C195.799942,352.113831 193.083252,355.241211 190.432770,357.517487 
	C188.289948,359.357880 186.394821,361.706055 183.936279,362.875702 
	C182.505264,363.556549 179.650116,362.932861 178.440308,361.811890 
	C177.595886,361.029541 178.123505,358.300171 178.668137,356.648102 
	C179.033478,355.539886 180.483398,354.775024 181.478516,353.890869 
	C191.305908,345.158844 201.154144,336.450287 210.962540,327.697052 
	C213.823456,325.143921 217.663101,322.167908 213.954742,318.269348 
	C210.563217,314.703857 207.306427,318.108246 204.571091,320.526489 
	C187.114349,335.959595 169.677948,351.415649 152.240738,366.870789 
	C149.752487,369.076202 147.004883,371.270386 144.137650,367.924896 
	C141.430054,364.765656 143.958694,362.510132 146.327805,360.440857 
	C151.088257,356.282928 155.966995,352.235199 160.417328,347.764130 
	C161.619858,346.555969 161.461044,343.992798 161.927124,342.051575 
	C160.105957,341.728790 158.061310,340.724487 156.512573,341.232422 
	C153.729065,342.145203 151.013260,343.668427 148.683182,345.471588 
	C144.478973,348.725098 140.693542,352.515839 136.529694,355.826263 
	C127.954903,362.643585 123.493446,371.591248 122.329437,382.319611 
	C121.952736,385.791534 121.282990,389.333191 121.609222,392.760895 
	C122.614128,403.319489 116.072449,408.387268 107.966515,412.451935 
	C106.058357,413.408752 104.008423,414.082855 102.023712,414.887024 
M325.511902,337.123138 
	C325.556366,328.209503 329.038269,323.127106 335.957336,321.876343 
	C343.002106,320.602905 348.979828,324.488983 351.990631,332.282379 
	C353.018677,334.943481 354.079590,337.591888 355.431763,341.023346 
	C355.431763,292.435364 355.431763,244.893616 355.431763,197.173508 
	C341.175568,197.173508 327.347137,197.098801 313.520508,197.222733 
	C309.769043,197.256363 306.858246,196.652939 306.643829,192.005463 
	C304.478882,192.005463 302.660736,192.005447 300.842560,192.005447 
	C268.345123,192.005447 235.847672,192.005676 203.350220,192.004730 
	C202.017059,192.004684 200.489822,192.403351 199.398773,191.886444 
	C197.964005,191.206711 196.872437,189.802536 195.633286,188.709854 
	C196.846893,187.639496 197.913940,186.253494 199.321121,185.600052 
	C200.419540,185.090012 201.940521,185.486084 203.273727,185.486053 
	C235.771164,185.485321 268.268616,185.485458 300.766052,185.485458 
	C302.677032,185.485458 304.588013,185.485458 306.542023,185.485458 
	C306.542023,172.745987 306.542023,160.818680 306.542023,148.733261 
	C263.177246,148.733261 220.097382,148.733261 176.748657,148.733261 
	C176.748657,210.210800 176.748657,271.390839 176.748657,333.407654 
	C182.413345,328.444305 187.628860,324.137207 192.490219,319.461853 
	C194.034836,317.976349 194.471985,315.399597 195.728455,313.532562 
	C196.539093,312.328033 197.764618,311.066559 199.076096,310.607727 
	C201.540680,309.745483 204.182419,309.170349 206.786865,308.983917 
	C209.862488,308.763763 212.989059,308.940155 216.070282,309.210236 
	C218.674194,309.438507 221.243561,310.418640 223.830490,310.427887 
	C250.161407,310.522095 276.492798,310.482361 302.824066,310.493805 
	C304.319061,310.494446 305.940308,310.281952 307.268372,310.786133 
	C308.299347,311.177521 309.701965,312.608246 309.616730,313.441772 
	C309.493317,314.649139 308.401459,316.128937 307.302399,316.756714 
	C306.280273,317.340515 304.707825,316.999268 303.377655,316.999725 
	C280.546112,317.007690 257.714569,317.005432 234.883041,317.005432 
	C231.244614,317.005432 227.606186,317.005432 223.614365,317.005432 
	C225.148773,324.856567 221.838791,330.165161 216.269592,334.688080 
	C211.540192,338.528961 207.151535,342.789459 203.881149,345.725159 
	C205.914108,350.831482 207.529388,354.953064 209.210510,359.047638 
	C209.489319,359.726715 209.934464,360.658936 210.507751,360.846008 
	C216.313690,362.740967 219.136261,367.170715 220.479034,372.550171 
	C259.691132,372.550171 298.562531,372.550171 337.664551,372.550171 
	C333.574249,360.774353 329.605164,349.347412 325.511902,337.123138 
M315.474365,160.913849 
	C315.474365,170.149078 315.474365,179.384323 315.474365,188.533691 
	C326.882233,188.533691 337.550903,188.533691 347.543823,188.533691 
	C337.024384,178.009995 326.329956,167.311249 315.678925,156.655930 
	C315.628937,157.481750 315.551697,158.757706 315.474365,160.913849 
z"/>
<path fill="#FDFDFE" opacity="1.000000" stroke="none" 
	d="
M102.178375,415.198181 
	C104.008423,414.082855 106.058357,413.408752 107.966515,412.451935 
	C116.072449,408.387268 122.614128,403.319489 121.609222,392.760895 
	C121.282990,389.333191 121.952736,385.791534 122.329437,382.319611 
	C123.493446,371.591248 127.954903,362.643585 136.529694,355.826263 
	C140.693542,352.515839 144.478973,348.725098 148.683182,345.471588 
	C151.013260,343.668427 153.729065,342.145203 156.512573,341.232422 
	C158.061310,340.724487 160.105957,341.728790 161.927124,342.051575 
	C161.461044,343.992798 161.619858,346.555969 160.417328,347.764130 
	C155.966995,352.235199 151.088257,356.282928 146.327805,360.440857 
	C143.958694,362.510132 141.430054,364.765656 144.137650,367.924896 
	C147.004883,371.270386 149.752487,369.076202 152.240738,366.870789 
	C169.677948,351.415649 187.114349,335.959595 204.571091,320.526489 
	C207.306427,318.108246 210.563217,314.703857 213.954742,318.269348 
	C217.663101,322.167908 213.823456,325.143921 210.962540,327.697052 
	C201.154144,336.450287 191.305908,345.158844 181.478516,353.890869 
	C180.483398,354.775024 179.033478,355.539886 178.668137,356.648102 
	C178.123505,358.300171 177.595886,361.029541 178.440308,361.811890 
	C179.650116,362.932861 182.505264,363.556549 183.936279,362.875702 
	C186.394821,361.706055 188.289948,359.357880 190.432770,357.517487 
	C193.083252,355.241211 195.799942,352.113831 199.294327,355.939880 
	C202.763840,359.738708 199.632462,362.174377 196.931992,364.548004 
	C193.305862,367.735291 189.747360,371.000275 186.091919,374.153198 
	C183.721451,376.197784 182.010422,378.550507 184.400970,381.364838 
	C186.804489,384.194427 189.379593,382.954376 191.741211,380.798218 
	C195.426605,377.433594 199.233917,374.202606 202.924454,370.843475 
	C205.430832,368.562164 207.965302,368.131042 210.292374,370.826630 
	C212.629929,373.534332 211.728256,375.966888 209.186966,378.128601 
	C206.018417,380.823944 202.969833,383.659973 199.813873,386.370575 
	C197.504150,388.354401 196.290222,390.797424 198.417496,393.284393 
	C200.769287,396.033813 203.435181,395.000122 205.781189,392.757874 
	C207.223251,391.379547 208.798813,390.141663 210.255569,388.777863 
	C212.687576,386.501038 215.225296,385.923737 217.631348,388.610107 
	C220.048660,391.309082 219.123154,393.721405 216.625305,395.916931 
	C206.876221,404.485992 197.566162,413.624634 187.270950,421.473450 
	C181.923676,425.550110 175.089249,428.331055 168.498230,429.917236 
	C163.078278,431.221558 157.027008,429.859222 151.254135,429.766846 
	C149.520050,429.739136 147.417892,429.420471 146.103561,430.234680 
	C137.571548,435.520203 129.539917,441.423187 124.504074,450.876038 
	C116.942009,439.226501 109.637527,427.367920 102.178375,415.198181 
z"/>
<path fill="#FDFDFE" opacity="1.000000" stroke="none" 
	d="
M385.884766,470.074463 
	C385.307159,467.049011 385.421021,464.037445 385.024078,461.094757 
	C383.973633,453.307709 381.266693,446.914154 372.704987,444.202271 
	C367.874390,442.672211 363.423096,439.788055 358.992859,437.186951 
	C352.021454,433.093781 347.036102,427.203186 344.375763,419.500214 
	C341.938385,412.442810 339.234711,405.445618 337.375214,398.234497 
	C336.506439,394.865479 334.925293,389.584473 339.696442,388.224243 
	C344.589417,386.829254 344.793427,392.257568 346.078125,395.437653 
	C347.817963,399.744324 349.384827,404.123016 350.942261,408.500580 
	C352.087646,411.719971 353.148834,415.566895 357.611267,413.807800 
	C362.065369,412.051971 360.087402,408.348938 358.971283,405.265778 
	C351.852509,385.601074 344.697998,365.949341 337.557220,346.292603 
	C336.650848,343.797668 335.816010,341.274811 334.840546,338.807373 
	C333.552917,335.550293 333.221527,332.103851 336.879913,330.676483 
	C340.963623,329.083130 342.788452,332.412781 343.991333,335.695007 
	C348.385315,347.684479 352.721283,359.695190 357.081787,371.696960 
	C357.817474,373.721863 358.109680,376.151367 359.445801,377.641724 
	C360.626984,378.959229 363.121490,379.997864 364.762543,379.691956 
	C365.876770,379.484283 367.413086,376.601807 367.189087,375.159576 
	C366.688171,371.934998 365.308746,368.822021 364.092987,365.740204 
	C362.828308,362.534546 362.851532,359.642670 366.406372,358.263763 
	C369.950378,356.889099 371.942932,358.854065 373.088287,362.226074 
	C374.851471,367.417053 376.896912,372.511475 378.718597,377.683472 
	C379.723114,380.535492 381.293793,382.523193 384.564301,381.439209 
	C387.929382,380.323822 387.852814,377.609192 386.896942,374.856873 
	C385.263214,370.152740 383.646149,365.435028 381.772247,360.824554 
	C380.402924,357.455566 380.841583,354.790771 384.329895,353.483490 
	C388.068695,352.082275 389.794403,354.565125 390.898346,357.687592 
	C392.281219,361.598907 393.292542,365.713989 395.241791,369.320862 
	C396.157928,371.016113 399.078735,372.901459 400.762024,372.633545 
	C403.900757,372.133850 404.420959,369.287262 403.203369,366.328430 
	C402.445557,364.487030 401.921204,362.547333 401.126373,360.723969 
	C399.730957,357.522919 399.889496,354.645111 403.425201,353.276245 
	C406.942139,351.914612 408.980743,353.798431 410.108917,357.215820 
	C411.511353,361.463928 413.236115,365.604553 414.762573,369.813049 
	C417.307068,376.828430 419.757477,383.878113 422.331848,390.882355 
	C427.339020,404.505737 425.658600,417.293884 417.894592,429.473907 
	C416.823547,431.154175 415.805542,433.505707 416.110840,435.319580 
	C417.748322,445.047607 420.374603,454.473175 427.143738,462.531311 
	C413.633514,465.269562 399.988434,467.694672 385.884766,470.074463 
z"/>
<path fill="#FDFDFE" opacity="1.000000" stroke="none" 
	d="
M325.573975,337.521790 
	C329.605164,349.347412 333.574249,360.774353 337.664551,372.550171 
	C298.562531,372.550171 259.691132,372.550171 220.479034,372.550171 
	C219.136261,367.170715 216.313690,362.740967 210.507751,360.846008 
	C209.934464,360.658936 209.489319,359.726715 209.210510,359.047638 
	C207.529388,354.953064 205.914108,350.831482 203.881149,345.725159 
	C207.151535,342.789459 211.540192,338.528961 216.269592,334.688080 
	C221.838791,330.165161 225.148773,324.856567 223.614365,317.005432 
	C227.606186,317.005432 231.244614,317.005432 234.883041,317.005432 
	C257.714569,317.005432 280.546112,317.007690 303.377655,316.999725 
	C304.707825,316.999268 306.280273,317.340515 307.302399,316.756714 
	C308.401459,316.128937 309.493317,314.649139 309.616730,313.441772 
	C309.701965,312.608246 308.299347,311.177521 307.268372,310.786133 
	C305.940308,310.281952 304.319061,310.494446 302.824066,310.493805 
	C276.492798,310.482361 250.161407,310.522095 223.830490,310.427887 
	C221.243561,310.418640 218.674194,309.438507 216.070282,309.210236 
	C212.989059,308.940155 209.862488,308.763763 206.786865,308.983917 
	C204.182419,309.170349 201.540680,309.745483 199.076096,310.607727 
	C197.764618,311.066559 196.539093,312.328033 195.728455,313.532562 
	C194.471985,315.399597 194.034836,317.976349 192.490219,319.461853 
	C187.628860,324.137207 182.413345,328.444305 176.748657,333.407654 
	C176.748657,271.390839 176.748657,210.210800 176.748657,148.733261 
	C220.097382,148.733261 263.177246,148.733261 306.542023,148.733261 
	C306.542023,160.818680 306.542023,172.745987 306.542023,185.485458 
	C304.588013,185.485458 302.677032,185.485458 300.766052,185.485458 
	C268.268616,185.485458 235.771164,185.485321 203.273727,185.486053 
	C201.940521,185.486084 200.419540,185.090012 199.321121,185.600052 
	C197.913940,186.253494 196.846893,187.639496 195.633286,188.709869 
	C196.872437,189.802536 197.964005,191.206711 199.398773,191.886444 
	C200.489822,192.403351 202.017059,192.004684 203.350220,192.004730 
	C235.847672,192.005676 268.345123,192.005447 300.842560,192.005447 
	C302.660736,192.005447 304.478882,192.005463 306.643829,192.005463 
	C306.858246,196.652939 309.769043,197.256363 313.520508,197.222733 
	C327.347137,197.098801 341.175568,197.173508 355.431763,197.173508 
	C355.431763,244.893616 355.431763,292.435364 355.431763,341.023346 
	C354.079590,337.591888 353.018677,334.943481 351.990631,332.282379 
	C348.979828,324.488983 343.002106,320.602905 335.957336,321.876343 
	C329.038269,323.127106 325.556366,328.209503 325.573975,337.521790 
M202.885254,215.565536 
	C245.687851,215.565552 288.490448,215.568375 331.293060,215.554916 
	C332.950409,215.554398 334.771851,215.789352 336.211945,215.186386 
	C337.321930,214.721634 338.657532,213.073318 338.598816,212.023621 
	C338.539948,210.971130 337.014618,209.782059 335.868591,209.087601 
	C335.132568,208.641571 333.920258,208.970764 332.921417,208.970718 
	C288.953033,208.968948 244.984619,208.969101 201.016220,208.969986 
	C200.183548,208.970001 199.146149,208.670517 198.562210,209.054733 
	C197.456055,209.782639 195.905060,210.866013 195.847946,211.875748 
	C195.786972,212.953979 197.015167,214.490936 198.094147,215.136185 
	C199.113983,215.746048 200.670609,215.458282 202.885254,215.565536 
M303.500000,270.031311 
	C313.825287,270.030701 324.153778,270.153931 334.472290,269.889038 
	C335.933411,269.851532 337.345978,267.924255 338.781006,266.871643 
	C337.430359,265.729004 336.161346,264.460358 334.688782,263.505768 
	C334.100922,263.124725 333.063721,263.433838 332.231049,263.433807 
	C288.764984,263.433319 245.298935,263.432526 201.832886,263.438202 
	C200.670288,263.438354 199.299637,263.137573 198.397766,263.641937 
	C197.269699,264.272797 195.672546,265.740906 195.818161,266.580444 
	C196.036728,267.840637 197.402725,269.231415 198.640671,269.884064 
	C199.687927,270.436157 201.246033,270.029694 202.578049,270.029785 
	C235.885361,270.031708 269.192688,270.031311 303.500000,270.031311 
M297.499725,293.566986 
	C307.159180,293.567017 316.818634,293.568787 326.478088,293.565887 
	C329.309143,293.565063 332.201141,293.892334 334.946136,293.402374 
	C336.368744,293.148438 337.531128,291.436584 338.811035,290.383362 
	C337.451782,289.246002 336.173279,287.982697 334.693420,287.033386 
	C334.103058,286.654663 333.067810,286.968628 332.235107,286.968597 
	C288.767670,286.968475 245.300217,286.968384 201.832764,286.969330 
	C200.833618,286.969360 199.621567,286.625214 198.883011,287.067047 
	C197.635895,287.813110 195.864059,289.042847 195.841492,290.101776 
	C195.817749,291.215485 197.386551,292.799713 198.631653,293.380707 
	C199.870285,293.958679 201.571365,293.564117 203.069656,293.564270 
	C234.212997,293.567871 265.356354,293.566956 297.499725,293.566986 
M225.500000,239.031845 
	C251.821152,239.031784 278.142761,239.092911 304.462463,238.896622 
	C306.254395,238.883255 309.275482,237.201080 309.565613,235.836014 
	C310.236938,232.677979 307.357300,232.430237 304.890778,232.430557 
	C270.073547,232.434952 235.256119,232.392761 200.439713,232.562042 
	C198.819809,232.569916 197.209030,234.455109 195.594009,235.465988 
	C197.233047,236.654343 198.828857,238.792343 200.518463,238.869232 
	C208.498245,239.232376 216.503693,239.031570 225.500000,239.031845 
z"/>
<path fill="#F4F5F8" opacity="1.000000" stroke="none" 
	d="
M315.474426,160.473755 
	C315.551697,158.757706 315.628937,157.481750 315.678925,156.655930 
	C326.329956,167.311249 337.024384,178.009995 347.543823,188.533691 
	C337.550903,188.533691 326.882233,188.533691 315.474365,188.533691 
	C315.474365,179.384323 315.474365,170.149078 315.474426,160.473755 
z"/>
<path fill="#1C3567" opacity="1.000000" stroke="none" 
	d="
M202.438202,215.565430 
	C200.670609,215.458282 199.113983,215.746048 198.094147,215.136185 
	C197.015167,214.490936 195.786972,212.953979 195.847946,211.875748 
	C195.905060,210.866013 197.456055,209.782639 198.562210,209.054733 
	C199.146149,208.670517 200.183548,208.970001 201.016220,208.969986 
	C244.984619,208.969101 288.953033,208.968948 332.921417,208.970718 
	C333.920258,208.970764 335.132568,208.641571 335.868591,209.087601 
	C337.014618,209.782059 338.539948,210.971130 338.598816,212.023621 
	C338.657532,213.073318 337.321930,214.721634 336.211945,215.186386 
	C334.771851,215.789352 332.950409,215.554398 331.293060,215.554916 
	C288.490448,215.568375 245.687851,215.565552 202.438202,215.565430 
z"/>
<path fill="#1C3567" opacity="1.000000" stroke="none" 
	d="
M303.000000,270.031311 
	C269.192688,270.031311 235.885361,270.031708 202.578049,270.029785 
	C201.246033,270.029694 199.687927,270.436157 198.640671,269.884064 
	C197.402725,269.231415 196.036728,267.840637 195.818161,266.580444 
	C195.672546,265.740906 197.269699,264.272797 198.397766,263.641937 
	C199.299637,263.137573 200.670288,263.438354 201.832886,263.438202 
	C245.298935,263.432526 288.764984,263.433319 332.231049,263.433807 
	C333.063721,263.433838 334.100922,263.124725 334.688782,263.505768 
	C336.161346,264.460358 337.430359,265.729004 338.781006,266.871643 
	C337.345978,267.924255 335.933411,269.851532 334.472290,269.889038 
	C324.153778,270.153931 313.825287,270.030701 303.000000,270.031311 
z"/>
<path fill="#1D3667" opacity="1.000000" stroke="none" 
	d="
M296.999695,293.566956 
	C265.356354,293.566956 234.212997,293.567871 203.069656,293.564270 
	C201.571365,293.564117 199.870285,293.958679 198.631653,293.380707 
	C197.386551,292.799713 195.817749,291.215485 195.841492,290.101776 
	C195.864059,289.042847 197.635895,287.813110 198.883011,287.067047 
	C199.621567,286.625214 200.833618,286.969360 201.832764,286.969330 
	C245.300217,286.968384 288.767670,286.968475 332.235107,286.968597 
	C333.067810,286.968628 334.103058,286.654663 334.693420,287.033386 
	C336.173279,287.982697 337.451782,289.246002 338.811035,290.383362 
	C337.531128,291.436584 336.368744,293.148438 334.946136,293.402374 
	C332.201141,293.892334 329.309143,293.565063 326.478088,293.565887 
	C316.818634,293.568787 307.159180,293.567017 296.999695,293.566956 
z"/>
<path fill="#1D3667" opacity="1.000000" stroke="none" 
	d="
M225.000000,239.031845 
	C216.503693,239.031570 208.498245,239.232376 200.518463,238.869232 
	C198.828857,238.792343 197.233047,236.654343 195.594009,235.465988 
	C197.209030,234.455109 198.819809,232.569916 200.439713,232.562042 
	C235.256119,232.392761 270.073547,232.434952 304.890778,232.430557 
	C307.357300,232.430237 310.236938,232.677979 309.565613,235.836014 
	C309.275482,237.201080 306.254395,238.883255 304.462463,238.896622 
	C278.142761,239.092911 251.821152,239.031784 225.000000,239.031845 
z"/>
</svg>